<?xml version="1.0" encoding="UTF-8" standalone="no"?>
<!-- Created with Inkscape (http://www.inkscape.org/) -->

<svg
   xmlns:dc="http://purl.org/dc/elements/1.1/"
   xmlns:cc="http://creativecommons.org/ns#"
   xmlns:rdf="http://www.w3.org/1999/02/22-rdf-syntax-ns#"
   xmlns:svg="http://www.w3.org/2000/svg"
   xmlns="http://www.w3.org/2000/svg"
   xmlns:sodipodi="http://sodipodi.sourceforge.net/DTD/sodipodi-0.dtd"
   xmlns:inkscape="http://www.inkscape.org/namespaces/inkscape"
   id="svg8"
   version="1.1"
   viewBox="0 0 210 297"
   height="297mm"
   width="210mm"
   inkscape:version="0.92.4 (5da689c313, 2019-01-14)"
   sodipodi:docname="Cutter box.svg">
  <defs
     id="defs2" />
  <sodipodi:namedview
     id="base"
     pagecolor="#ffffff"
     bordercolor="#666666"
     borderopacity="1.0"
     inkscape:pageopacity="0.0"
     inkscape:pageshadow="2"
     inkscape:zoom="0.64"
     inkscape:cx="325.65515"
     inkscape:cy="584.86241"
     inkscape:document-units="mm"
     inkscape:current-layer="layer1"
     showgrid="false"
     inkscape:window-width="1920"
     inkscape:window-height="986"
     inkscape:window-x="-11"
     inkscape:window-y="-11"
     inkscape:window-maximized="1" />
  <metadata
     id="metadata5">
    <rdf:RDF>
      <cc:Work
         rdf:about="">
        <dc:format>image/svg+xml</dc:format>
        <dc:type
           rdf:resource="http://purl.org/dc/dcmitype/StillImage" />
        <dc:title></dc:title>
      </cc:Work>
    </rdf:RDF>
  </metadata>
  <g
     inkscape:label="Layer 1"
     inkscape:groupmode="layer"
     id="layer1">
    <g
       id="g8780"
       transform="translate(-102.31412,209.8901)">
      <path
         inkscape:connector-curvature="0"
         d="m 242.48962,-72.421753 h 11.37773 v -3.1 h 11.66273 v 3.1 h 11.28273 v -3.1 h 11.66272 v 3.1 h 11.28273 v -3.1 h 11.66273 v 3.1 h 11.28272 v -3.1 h 11.66273 v 3.1 h 11.28273 v -3.1 h 11.66273 v 3.1 h 11.37772"
         style="fill:none;stroke:#000000;stroke-width:1"
         inkscape:label="part"
         id="path7688" />
      <path
         inkscape:connector-curvature="0"
         d="m 368.68962,-72.421753 v 9.06167 h -3.1 v 11.87666 h 3.1 v 9.06167"
         style="fill:none;stroke:#000000;stroke-width:1"
         inkscape:label="part"
         id="path7690" />
      <path
         inkscape:connector-curvature="0"
         d="M 368.68962,-42.421753 H 357.3119 v 3.1 h -11.66273 v -3.1 h -11.28273 v 3.1 h -11.66273 v -3.1 h -11.28272 v 3.1 h -11.66273 v -3.1 h -11.28273 v 3.1 h -11.66272 v -3.1 h -11.28273 v 3.1 h -11.66273 v -3.1 h -11.37773"
         style="fill:none;stroke:#000000;stroke-width:1"
         inkscape:label="part"
         id="path7692" />
      <path
         inkscape:connector-curvature="0"
         d="m 242.48962,-42.421753 v -9.06167 h 3.1 v -11.87666 h -3.1 v -9.06167"
         style="fill:none;stroke:#000000;stroke-width:1"
         inkscape:label="part"
         id="path7694" />
    </g>
    <g
       id="g8768">
      <g
         id="g8786"
         transform="translate(-138.85488,155.22513)">
        <path
           id="path7712"
           inkscape:label="part"
           style="fill:none;stroke:#000000;stroke-width:1"
           d="m 300.70811,33.360914 h 8.87167 v -3.1 h 12.25666 v 3.1 h 8.87167"
           inkscape:connector-curvature="0" />
        <path
           id="path7714"
           inkscape:label="part"
           style="fill:none;stroke:#000000;stroke-width:1"
           d="m 330.70811,33.360914 v 8.605 h 3.1 v 11.99 h -3.1 v 11.61 h 3.1 v 11.99 h -3.1 v 11.61 h 3.1 v 11.989996 h -3.1 v 11.61 h 3.1 v 11.99 h -3.1 v 8.605"
           inkscape:connector-curvature="0" />
        <path
           id="path7716"
           inkscape:label="part"
           style="fill:none;stroke:#000000;stroke-width:1"
           d="m 330.70811,133.36091 h -8.87167 v 3.1 h -12.25666 v -3.1 h -8.87167"
           inkscape:connector-curvature="0" />
        <path
           id="path7718"
           inkscape:label="part"
           style="fill:none;stroke:#000000;stroke-width:1"
           d="m 300.70811,133.36091 v -8.605 h -3.1 v -11.99 h 3.1 v -11.61 h -3.1 V 89.165914 h 3.1 v -11.61 h -3.1 v -11.99 h 3.1 v -11.61 h -3.1 v -11.99 h 3.1 v -8.605"
           inkscape:connector-curvature="0" />
      </g>
    </g>
    <g
       id="g8774"
       transform="translate(-241.16899,160.19467)">
      <path
         inkscape:connector-curvature="0"
         d="m 243.65893,-24.132605 h 11.37773 v -3.1 h 11.66272 v 3.1 h 11.28273 v -3.1 h 11.66273 v 3.1 h 11.28272 v -3.1 h 11.66273 v 3.1 h 11.28273 v -3.1 h 11.66273 v 3.1 h 11.28272 v -3.1 h 11.66273 v 3.1 h 11.37773"
         style="fill:none;stroke:#000000;stroke-width:1"
         inkscape:label="part"
         id="path7728" />
      <path
         inkscape:connector-curvature="0"
         d="m 369.85893,-24.132605 v 9.061667 h -3.1 v 11.8766666 h 3.1 v 9.0616667"
         style="fill:none;stroke:#000000;stroke-width:1"
         inkscape:label="part"
         id="path7730" />
      <path
         inkscape:connector-curvature="0"
         d="M 369.85893,5.8673953 H 358.4812 V 8.9673952 H 346.81847 V 5.8673953 H 335.53575 V 8.9673952 H 323.87302 V 5.8673953 H 312.59029 V 8.9673952 H 300.92756 V 5.8673953 H 289.64484 V 8.9673952 H 277.98211 V 5.8673953 H 266.69938 V 8.9673952 H 255.03666 V 5.8673953 h -11.37773"
         style="fill:none;stroke:#000000;stroke-width:1"
         inkscape:label="part"
         id="path7732" />
      <path
         inkscape:connector-curvature="0"
         d="m 243.65893,5.8673953 v -9.0616667 h 3.1 V -15.070938 h -3.1 v -9.061667"
         style="fill:none;stroke:#000000;stroke-width:1"
         inkscape:label="part"
         id="path7734" />
    </g>
    <g
       id="g8762"
       transform="translate(-93.836661,-14.03165)">
      <path
         inkscape:connector-curvature="0"
         d="m 251.82318,33.360914 h 8.87167 v -3.1 h 12.25667 v 3.1 h 8.87166"
         style="fill:none;stroke:#000000;stroke-width:1"
         inkscape:label="part"
         id="path7696" />
      <path
         inkscape:connector-curvature="0"
         d="m 281.82318,33.360914 v 8.605 h 3.1 v 11.99 h -3.1 v 11.61 h 3.1 v 11.99 h -3.1 v 11.61 h 3.1 v 11.989996 h -3.1 v 11.61 h 3.1 v 11.99 h -3.1 v 8.605"
         style="fill:none;stroke:#000000;stroke-width:1"
         inkscape:label="part"
         id="path7698" />
      <path
         inkscape:connector-curvature="0"
         d="m 281.82318,133.36091 h -8.87166 v 3.1 h -12.25667 v -3.1 h -8.87167"
         style="fill:none;stroke:#000000;stroke-width:1"
         inkscape:label="part"
         id="path7700" />
      <path
         inkscape:connector-curvature="0"
         d="m 251.82318,133.36091 v -8.605 h -3.1 v -11.99 h 3.1 v -11.61 h -3.1 V 89.165914 h 3.1 v -11.61 h -3.1 v -11.99 h 3.1 v -11.61 h -3.1 v -11.99 h 3.1 v -8.605"
         style="fill:none;stroke:#000000;stroke-width:1"
         inkscape:label="part"
         id="path7702" />
      <path
         inkscape:connector-curvature="0"
         d="m 281.82318,33.360914 v 8.605 h 3.1 v 11.99 h -3.1 v 11.61 h 3.1 v 11.99 h -3.1 v 11.61 h 3.1 v 11.989996 h -3.1 v 11.61 h 3.1 v 11.99 h -3.1 v 8.605"
         style="fill:none;stroke:#000000;stroke-width:1"
         inkscape:label="part"
         id="path7802" />
    </g>
    <g
       id="g8748">
      <path
         inkscape:connector-curvature="0"
         d="m 137.16739,16.813917 v 11.895 h -3.1 v 11.609999 h 3.1 v 11.99 h -3.1 v 11.609997 h 3.1 v 11.99 h -3.1 v 11.61 h 3.1 v 11.99 h -3.1 v 11.609997 h 3.1 v 11.895"
         style="fill:none;stroke:#000000;stroke-width:1"
         inkscape:label="part"
         id="path7706" />
      <path
         inkscape:connector-curvature="0"
         d="m 137.16739,123.01391 h -11.56772 v -3.1 h -11.28273 v 3.1 h -11.66273 v -3.1 H 91.371485 v 3.1 H 79.708758 v -3.1 H 68.426031 v 3.1 H 56.763304 v -3.1 H 45.480576 v 3.1 H 33.817849 v -3.1 H 22.535122 v 3.1 H 10.967395"
         style="fill:none;stroke:#000000;stroke-width:1"
         inkscape:label="part"
         id="path7708" />
      <path
         inkscape:connector-curvature="0"
         d="m 10.967395,123.01391 v -11.895 h 3.1 V 99.508913 h -3.1 v -11.99 h 3.1 v -11.61 h -3.1 v -11.99 h 3.1 V 52.308916 h -3.1 v -11.99 h 3.1 V 28.708917 h -3.1 v -11.895"
         style="fill:none;stroke:#000000;stroke-width:1"
         inkscape:label="part"
         id="path7710" />
      <path
         sodipodi:nodetypes="cccccccccccccccccccccc"
         inkscape:connector-curvature="0"
         d="m 10.967395,16.813917 h 11.567727 v 3.099999 h 11.282727 v -3.099999 h 11.662727 v 3.099999 h 11.282728 l 0.206706,-7.337466 11.456021,0.103352 0,7.234114 h 11.282727 v -7.440819 l 11.662727,0.206705 v 7.234114 h 11.282725 v -3.099999 h 11.66273 v 3.099999 h 11.28273 v -3.099999 h 11.56772"
         style="fill:none;stroke:#000000;stroke-width:1"
         inkscape:label="part"
         id="path7808" />
      <text
         id="text7872"
         y="75.82486"
         x="19.843748"
         style="font-style:normal;font-variant:normal;font-weight:normal;font-stretch:normal;font-size:19.75555611px;line-height:1.25;font-family:sans-serif;-inkscape-font-specification:'sans-serif, Normal';font-variant-ligatures:normal;font-variant-caps:normal;font-variant-numeric:normal;font-feature-settings:normal;text-align:start;letter-spacing:0px;word-spacing:0px;writing-mode:lr-tb;text-anchor:start;fill:#000000;fill-opacity:1;stroke:none;stroke-width:0.26458332"
         xml:space="preserve"><tspan
           y="75.82486"
           x="19.843748"
           id="tspan7876"
           sodipodi:role="line">Ágúst Jens</tspan></text>
    </g>
    <g
       id="g8755">
      <path
         inkscape:connector-curvature="0"
         d="M 9.5722441,185.19372 H 21.139972 v 3.1 h 11.282727 v -3.1 h 11.662727 v 3.1 h 11.282727 v -3.1 h 11.662728 v 3.1 h 11.282727 v -3.1 h 11.662727 v 3.1 h 11.282725 v -3.1 h 11.66273 v 3.1 h 11.28273 v -3.1 h 11.56773"
         style="fill:none;stroke:#000000;stroke-width:1"
         inkscape:label="part"
         id="path7720" />
      <path
         inkscape:connector-curvature="0"
         d="m 135.77225,185.19372 v 11.895 h -3.1 v 11.61 h 3.1 v 11.99 h -3.1 v 11.61 h 3.1 v 11.99 h -3.1 v 11.61 h 3.1 v 11.99 h -3.1 v 11.61 h 3.1 v 11.895"
         style="fill:none;stroke:#000000;stroke-width:1"
         inkscape:label="part"
         id="path7722" />
      <path
         inkscape:connector-curvature="0"
         d="m 135.77225,291.39372 h -11.56773 v -3.1 h -11.28273 v 3.1 h -11.66273 v -3.1 H 89.976335 v 3.1 H 78.313608 v -3.1 H 67.030881 v 3.1 H 55.368153 v -3.1 H 44.085426 v 3.1 H 32.422699 v -3.1 H 21.139972 v 3.1 H 9.5722441"
         style="fill:none;stroke:#000000;stroke-width:1"
         inkscape:label="part"
         id="path7724" />
      <path
         inkscape:connector-curvature="0"
         d="m 9.5722441,291.39372 v -11.895 h 3.0999999 v -11.61 H 9.5722441 v -11.99 h 3.0999999 v -11.61 H 9.5722441 v -11.99 h 3.0999999 v -11.61 H 9.5722441 v -11.99 h 3.0999999 v -11.61 H 9.5722441 v -11.895"
         style="fill:none;stroke:#000000;stroke-width:1"
         inkscape:label="part"
         id="path7726" />
      <path
         style="fill:#494440;stroke-width:0.14515133"
         d="m 52.3567,272.54225 c -0.57844,-0.20473 -1.45244,-0.39088 -2.056168,-0.4379 -1.123735,-0.0875 -2.105133,-0.39676 -2.624275,-0.8269 -0.176393,-0.14616 -0.86337,-0.46131 -1.526618,-0.70035 -2.959467,-1.06661 -3.242191,-2.49364 -0.734665,-3.70805 0.563177,-0.27277 1.424437,-0.60821 1.913911,-0.74543 1.578872,-0.44265 4.531081,-0.79848 6.746445,-0.81316 1.129696,-0.007 2.054041,-0.0558 2.054102,-0.10724 6e-5,-0.0515 -0.378035,-0.44524 -0.84021,-0.87501 -0.847607,-0.78819 -4.693183,-6.28936 -4.693183,-6.71368 0,-0.11632 -0.228596,-0.47846 -0.507995,-0.80472 -0.761541,-0.88927 -1.048041,-2.10801 -0.9586,-4.07779 0.05264,-1.15933 0.157447,-1.77929 0.361113,-2.13601 0.178231,-0.31219 0.24964,-0.6529 0.188482,-0.89933 -0.05675,-0.22863 0.0029,-0.57468 0.140451,-0.8167 0.131401,-0.231 0.520161,-1.08691 0.863898,-1.90201 0.446601,-1.05904 0.886141,-1.79372 1.540043,-2.57419 1.739105,-2.07567 3.003047,-2.97366 6.085969,-4.32384 2.342214,-1.02579 8.162229,-3.92789 8.836197,-4.40609 0.425503,-0.30192 0.517047,-0.45107 0.444244,-0.72383 -0.138141,-0.51757 1.311739,-2.98904 2.3505,-4.00668 2.856606,-2.7985 2.904431,-2.85572 3.288322,-3.93407 0.203691,-0.57216 1.211847,-1.74039 1.217764,-2.73654 l 0.847417,-1.69624 -0.210481,-1.06801 c -0.567826,-2.88121 -0.669451,-3.73617 -0.672092,-5.65418 -0.0075,-5.52023 0.715129,-9.36697 2.347765,-12.49595 1.073038,-2.05651 1.247136,-2.11412 2.251494,-0.74494 0.839565,1.14451 1.232958,2.37813 1.434671,4.4989 0.09252,0.97269 0.248598,2.50357 0.346846,3.40196 0.127034,1.16155 0.126511,1.92379 -0.0019,2.63862 -0.09925,0.55283 -0.29486,1.86223 -0.434702,2.90975 -0.139834,1.04753 -0.365101,2.17836 -0.500581,2.51296 -0.288395,0.71229 -0.333319,1.92768 -0.07126,1.92768 0.396087,0 0.812523,-0.27476 1.327053,-0.87559 0.599219,-0.69972 0.844134,-0.76962 1.224522,-0.34947 0.230389,0.25447 0.294012,0.26553 0.636947,0.11073 0.334906,-0.15116 0.407835,-0.14446 0.602905,0.0555 0.12205,0.12507 0.221913,0.40543 0.221913,0.623 0,0.30309 0.100951,0.43004 0.431771,0.543 0.547574,0.18695 0.708764,0.10782 1.083134,-0.53166 0.760444,-1.29895 1.769491,-2.34213 0.919883,-6.80019 l 0.02318,-4.27204 1.20395,-2.62535 c 0.662177,-1.44395 1.434788,-2.92766 1.71691,-3.29714 0.465821,-0.61009 1.036284,-1.05098 1.359849,-1.05098 0.183001,0 0.467909,0.44243 0.714269,1.10915 1.190596,3.22209 1.098027,2.70623 1.09741,6.11562 -3.32e-4,2.08715 -0.08134,3.54248 -0.241139,4.33703 -0.373567,1.85692 -0.848185,5.83619 -4.045315,7.95985 l -0.747215,1.05253 0.513054,0.73084 c 0.287423,0.40943 0.732751,0.83097 1.012611,0.95849 0.300873,0.13711 0.537834,0.37105 0.595796,0.58819 0.06282,0.23518 0.374454,0.51953 0.896417,0.81778 2.147524,1.2272 6.163836,4.94292 7.689817,7.1143 2.054954,2.92409 2.500004,4.34981 -0.855592,5.7319 l -1.169108,0.8264 0.106339,0.58454 c 0.140674,0.77285 0.893948,1.92458 2.819148,4.31005 2.059067,2.55139 3.893637,5.50999 3.757397,6.05961 -0.0535,0.2158 -0.12816,1.13475 -0.16584,2.04214 -0.072,1.73067 -0.36399,2.79158 -0.97349,3.53626 -0.35371,0.43215 -1.07493,0.78225 -1.611506,0.78225 -0.174724,0 -0.461337,0.11894 -0.636918,0.26432 -0.530143,0.43896 -1.657541,0.86804 -2.405625,0.91556 -0.387983,0.0246 -0.770285,0.0943 -0.849547,0.15495 -0.07928,0.0606 -0.376305,0.65487 -0.660073,1.3207 -0.46226,1.0846 -2.331,3.7046 -3.131683,4.39065 -0.399503,0.34231 -0.258941,0.46111 0.648822,0.5484 0.484192,0.0466 1.043499,0.15202 1.242941,0.23437 0.413286,0.17062 1.420533,1.01345 2.206072,1.84595 0.293436,0.31098 0.778736,0.78286 1.078438,1.04861 0.481787,0.42721 0.544259,0.56853 0.53918,1.21954 -0.0063,0.86282 -0.422353,1.30393 -1.409504,1.49603 -3.535506,0.688 -16.669812,1.52795 -17.983004,1.15002 -0.415049,-0.11944 -1.119208,-0.58837 -1.394292,-0.92852 -0.136385,-0.16865 -0.511677,-0.22314 -2.012183,-0.24321 l -1.8445,-0.0358 -0.08383,0.49628 c -0.110469,0.65389 -0.587229,0.85533 -2.850592,1.20442 -1.287258,0.19854 -2.110052,0.25453 -3.060111,0.20827 -1.004717,-0.0489 -1.689307,0.005 -3.018273,0.23667 -1.337523,0.23344 -2.202398,0.30059 -3.898686,0.30272 -1.198925,0.001 -2.858975,0.0863 -3.688999,0.18854 -2.301481,0.28335 -3.184982,0.24969 -4.359729,-0.16612 z m 3.437477,-0.15705 c 0.415012,-0.069 2.225977,-0.17553 4.024364,-0.23666 2.050745,-0.0697 3.629192,-0.18633 4.233785,-0.3127 0.530192,-0.11085 2.152514,-0.25211 3.605159,-0.31394 2.51702,-0.10712 4.377269,-0.35774 4.853348,-0.6538 0.281709,-0.17519 0.283659,-0.78859 0.003,-0.96309 -0.118885,-0.0739 -0.816859,-0.29816 -1.551057,-0.49828 l -1.334916,-0.36386 -2.263705,0.21902 c -1.245037,0.12045 -2.894559,0.30948 -3.665603,0.42007 -1.720051,0.24668 -3.704469,0.25941 -4.442034,0.0285 -0.30315,-0.0948 -1.353558,-0.67446 -2.334237,-1.28789 -0.980682,-0.61342 -2.516388,-1.44874 -3.412679,-1.85624 l -1.629622,-0.74092 -1.333298,0.15294 c -2.519993,0.28906 -4.280078,0.81251 -5.556993,1.6526 -1.132085,0.7448 -0.93188,1.4777 0.61511,2.25179 1.106728,0.55378 1.436502,0.61331 1.56775,0.28301 0.329642,-0.82961 0.866395,-1.34 2.152134,-2.04637 1.278703,-0.7025 2.04035,-0.94699 1.845003,-0.59225 -0.04757,0.0865 -0.650442,0.4633 -1.339723,0.83758 -1.403791,0.76226 -1.950439,1.31424 -1.950439,1.96948 0,0.7566 1.0014,1.30793 2.375697,1.30793 0.641041,0 0.676113,-0.0199 0.676113,-0.38099 0,-0.51087 0.42009,-1.23474 0.973066,-1.67674 0.587312,-0.46943 2.031703,-1.33478 2.227948,-1.33478 0.385971,0 0.07646,0.37299 -0.727708,0.87692 -1.332002,0.83471 -1.676871,1.20254 -1.763915,1.88132 -0.06448,0.50291 -0.01623,0.64012 0.303573,0.86339 0.808302,0.56428 2.327628,0.76712 3.84981,0.51399 z m 30.769628,-1.67936 c 1.291134,-0.10353 2.800279,-0.21072 3.35362,-0.23829 0.553358,-0.0277 2.275855,-0.20811 3.827803,-0.40118 3.371207,-0.41938 3.634041,-0.52416 3.634041,-1.4486 0,-0.53163 -0.08323,-0.68786 -0.59181,-1.1096 -0.815414,-0.67632 -1.82179,-0.99982 -3.459725,-1.11213 -0.924156,-0.0633 -1.395816,-0.15015 -1.447211,-0.26631 -0.06218,-0.14055 0.236455,-0.16287 1.62132,-0.12119 0.93365,0.0281 1.697558,0.008 1.697558,-0.0444 0,-0.21825 -1.163332,-0.52083 -2.22044,-0.5775 -0.806363,-0.0432 -1.133188,-0.11027 -1.133188,-0.23235 0,-0.11595 0.214112,-0.17158 0.660833,-0.17158 0.948683,0 0.976707,-0.19723 0.05286,-0.37158 -0.723162,-0.13644 -0.814766,-0.12764 -1.062899,0.10202 -0.185661,0.17181 -0.277359,0.5224 -0.289954,1.10857 -0.04874,2.26971 -0.118527,2.31055 -5.313454,3.1074 -0.55335,0.0849 -1.232462,0.24349 -1.509136,0.35248 -1.199198,0.47233 -2.723143,0.75382 -4.513985,0.83379 -2.027004,0.0905 -2.313341,0.22329 -1.409102,0.65347 0.523953,0.24926 0.712648,0.26093 3.156336,0.19513 1.429488,-0.0386 3.655464,-0.15465 4.94662,-0.25814 z m -5.343416,-1.13622 c 3.483343,-0.49941 7.475283,-2.69952 10.146383,-5.59207 2.2578,-2.44495 4.011596,-4.99783 3.764683,-5.47998 -0.05222,-0.10213 -0.3295,-0.17418 -0.669378,-0.17418 -0.631037,0 -1.107174,-0.26557 -1.107174,-0.61755 0,-0.32252 0.618124,-1.61937 1.007594,-2.11402 0.480996,-0.61086 0.43392,-0.78646 -0.211104,-0.78728 -0.938873,-0.001 -1.849784,-0.26084 -2.423522,-0.69076 -0.614469,-0.46043 -0.672954,-0.73462 -0.299528,-1.40431 0.362459,-0.65003 0.687669,-0.78559 1.895672,-0.79013 1.55622,-0.006 1.707702,-0.10015 1.707702,-1.06394 0,-0.43991 -0.150959,-1.4698 -0.335559,-2.28867 -0.385546,-1.71064 -1.162336,-3.07232 -2.186371,-3.83265 -0.618235,-0.45904 -0.618299,-0.45916 -0.4684,-1.17539 0.08244,-0.39396 0.260792,-0.91518 0.396338,-1.15827 0.332204,-0.59576 0.314783,-0.66258 -0.172747,-0.66258 -0.569292,0 -0.526695,-0.1772 0.125798,-0.52313 1.141528,-0.60523 5.523257,-3.66548 6.176209,-4.31351 l 0.683097,-0.67795 -0.530888,-1.16921 c -0.740252,-1.63031 -1.79402,-3.01834 -3.837629,-5.05493 -1.854325,-1.84795 -3.388155,-3.13638 -4.753509,-3.99297 -0.818153,-0.51328 -0.830859,-0.51632 -1.298847,-0.30915 -0.329119,0.14568 -0.872064,0.21075 -1.788198,0.21433 l -1.315576,0.005 0.754567,0.51205 c 1.131076,0.76753 2.23439,1.18812 3.925872,1.49652 0.838075,0.1528 1.618108,0.33342 1.733383,0.40134 0.358219,0.21108 0.255095,1.0222 -0.167684,1.31896 -0.530477,0.37236 -1.095606,0.50853 -2.50859,0.60447 -2.175216,0.14771 -4.573566,-0.52225 -6.265418,-1.75014 -0.723038,-0.52478 -0.909607,-0.74158 -0.909607,-1.05701 0,-0.6449 1.026695,-0.88103 1.826694,-0.42012 0.569872,0.32833 0.316901,0.57443 -0.332,0.32299 -0.558427,-0.21639 -0.823968,-0.15522 -0.823968,0.18984 0,0.31544 1.498919,1.30324 2.566842,1.69156 1.531072,0.55675 2.824728,0.73819 4.24746,0.59575 1.518845,-0.15208 2.11442,-0.40528 2.041029,-0.86773 -0.03545,-0.22386 -0.185106,-0.35703 -0.471248,-0.41951 -3.570951,-0.77985 -4.011738,-0.95974 -6.39761,-2.61103 -0.613602,-0.42467 -1.200011,-0.77214 -1.30313,-0.77214 -0.103117,0 -0.468832,0.13912 -0.812699,0.30915 -1.199556,0.59313 -6.560819,0.95412 -7.584009,0.51065 -1.020828,-0.44245 -1.012997,-0.44705 -1.434593,0.84207 -0.153221,0.46852 -0.40726,0.97891 -0.56451,1.13419 -0.157256,0.15528 -0.535651,0.5933 -0.840893,0.97339 -0.305239,0.38008 -1.069991,1.19994 -1.699445,1.82189 -1.14063,1.12705 -2.436235,3.04877 -2.616439,3.88087 -0.07246,0.3346 0.0461,0.58256 0.612844,1.28156 1.149401,1.41769 2.119416,2.37482 3.402968,3.35775 1.292388,0.98969 2.23471,1.46281 3.665483,1.84036 1.059046,0.27947 1.2526,0.50803 0.430225,0.50803 -0.345183,0 -1.137233,-0.20846 -1.949263,-0.513 l -1.367824,-0.513 -1.662169,1.19546 c -0.914193,0.65751 -2.112831,1.42479 -2.663639,1.70506 -2.314302,1.17766 -6.127707,5.16014 -6.802667,7.1043 -0.354072,1.01986 -0.329199,1.28923 0.159214,1.72417 0.288556,0.25698 0.419206,0.52433 0.419206,0.85786 0,0.42376 -0.09722,0.54423 -0.774978,0.96039 l -0.774981,0.47585 0.115366,1.29059 c 0.221629,2.47922 1.418033,5.86723 2.735069,7.74529 1.58512,2.26033 4.218091,4.16944 7.110389,5.15561 1.707483,0.58217 2.597845,0.7324 4.919833,0.83001 3.390199,0.14251 4.197181,0.13364 5.555912,-0.0612 z m 3.866913,-24.65289 c -0.166499,-0.0324 -0.276327,-0.11809 -0.244065,-0.19066 0.03346,-0.0752 0.703633,-0.14724 1.560336,-0.16769 0.825915,-0.0196 1.878956,-0.12462 2.340077,-0.23317 1.155277,-0.27192 1.386478,-0.26372 1.02405,0.0364 -0.567598,0.46997 -3.393385,0.80515 -4.680398,0.55516 z m -0.565431,-1.13035 c -0.200808,-0.0293 -0.443516,-0.12406 -0.53935,-0.21058 -0.137841,-0.12445 0.236118,-0.15763 1.790403,-0.1588 1.55483,-9.5e-4 2.191388,-0.0576 3.051632,-0.27082 1.135024,-0.28124 1.686688,-0.20007 0.984207,0.14484 -0.885957,0.43498 -3.817643,0.70967 -5.286892,0.49536 z m -0.892507,-1.27346 c -1.228751,-0.25692 -1.844499,-0.4752 -1.844499,-0.65385 0,-0.16989 0.176634,-0.15508 1.549809,0.13006 1.640613,0.34068 2.341805,0.32172 3.31863,-0.0897 0.777574,-0.32752 0.848749,-0.33499 1.795469,-0.18847 1.368899,0.21187 1.407715,0.20671 2.181292,-0.28944 0.88477,-0.5675 1.078785,-0.35154 0.279638,0.31127 -0.54774,0.45431 -0.693889,0.50769 -1.390182,0.50769 -0.427938,0 -1.017374,-0.0515 -1.309845,-0.11433 -0.43221,-0.0928 -0.674916,-0.0572 -1.296205,0.19066 -1.040902,0.41521 -1.970773,0.47075 -3.284107,0.19612 z m 1.761981,-3.16079 c -0.122429,-0.14843 0.75076,-0.59599 1.601657,-0.82096 1.35537,-0.35833 3.678996,-0.17661 3.678996,0.28773 0,0.14085 -0.104124,0.15756 -0.461121,0.0741 -0.952068,-0.22269 -2.750915,-0.10852 -3.76955,0.23919 -0.528481,0.1804 -1.000974,0.2794 -1.049982,0.21998 z m 0.417884,-2.68621 c 0,-0.0949 0.437613,-0.29118 0.979456,-0.43923 1.071839,-0.29286 1.631416,-0.65455 1.477529,-0.95505 -0.135767,-0.2652 -0.608882,-0.24219 -1.65429,0.0805 -0.673471,0.20786 -1.249236,0.27581 -2.395673,0.28271 -1.886715,0.0118 -2.394413,-0.1716 -4.243453,-1.52908 -1.453936,-1.06742 -2.502095,-2.28681 -3.375626,-3.92708 -0.502526,-0.94361 -0.516387,-1.01392 -0.270249,-1.37059 0.562782,-0.81549 1.901624,-1.2418 2.786054,-0.88711 0.48007,0.19252 0.393721,0.37252 -0.178704,0.37252 -0.276675,0 -0.503046,0.0536 -0.503046,0.11912 0,0.0655 0.375278,0.45703 0.833953,0.87001 1.080914,0.97327 2.205918,1.38526 5.349223,1.95895 2.908806,0.53088 3.729317,0.61355 4.716134,0.47512 0.691389,-0.097 0.750538,-0.13427 0.70631,-0.44521 -0.05269,-0.37099 0.05491,-0.40293 0.719697,-0.21353 0.319688,0.0911 0.426958,0.20036 0.388204,0.39551 -0.05633,0.28371 -0.260379,0.40531 -1.017721,0.60644 -0.400737,0.10643 -0.46112,0.18942 -0.46112,0.63387 0,0.37545 -0.109499,0.5934 -0.411593,0.81982 -0.481501,0.36081 -0.644296,0.3676 -2.849001,0.11859 -0.917193,-0.10364 -1.730531,-0.1412 -1.807419,-0.0835 -0.219266,0.16432 0.05304,1.54224 0.319949,1.61899 0.127999,0.0367 0.777081,-0.0816 1.442389,-0.26299 1.398909,-0.38151 1.749628,-0.40214 2.262271,-0.1331 0.886685,0.46539 0.177685,1.35669 -1.447227,1.81933 -1.021102,0.29074 -1.366047,0.3097 -1.366047,0.0751 z m -3.689002,-2.25991 c 0,-0.16255 -0.170792,-0.48544 -0.379534,-0.71756 -0.641905,-0.71374 -2.30769,-1.42264 -2.57666,-1.09654 -0.113762,0.13793 2.463948,2.10964 2.758025,2.10964 0.108996,0 0.198169,-0.13299 0.198169,-0.29554 z m 6.947382,-1.41141 c 0.18574,-0.55451 -0.02436,-0.80601 -0.67346,-0.80601 -0.683144,0 -4.017805,-0.52664 -5.687036,-0.89815 -2.221298,-0.49437 -3.378073,-1.13008 -4.517586,-2.4827 -0.378878,-0.44973 -0.482251,-0.50175 -0.768748,-0.38685 -0.491437,0.19708 -0.405976,0.558 0.321042,1.35587 0.876146,0.96151 1.184935,1.1578 3.003399,1.90913 2.675196,1.10533 4.806096,1.59763 7.016089,1.62091 1.153917,0.0122 1.201468,9.5e-4 1.3063,-0.3122 z m -24.805498,36.07825 c 1.383374,-0.16949 2.873647,-0.3427 3.311717,-0.38494 0.438068,-0.0422 0.796488,-0.12985 0.796488,-0.19473 0,-0.0648 -0.06078,-0.11798 -0.135056,-0.11798 -0.07428,0 -0.643441,-0.31421 -1.264799,-0.69826 -3.717905,-2.29795 -6.086357,-6.27718 -6.71121,-11.27548 l -0.189187,-1.51332 -1.215484,-0.009 c -0.708207,-0.006 -1.214989,0.0423 -1.214291,0.11561 6.98e-4,0.0691 0.377215,0.77588 0.836797,1.57061 0.459582,0.79472 0.836235,1.53979 0.837007,1.65571 8.22e-4,0.11596 -0.206103,0.33347 -0.459723,0.48342 -0.531182,0.31407 -1.42404,0.28369 -2.451441,-0.0834 -0.488457,-0.17456 -0.680018,-0.18701 -1.031406,-0.0671 -0.56745,0.19374 -1.102432,0.18648 -1.510297,-0.0206 -0.308185,-0.15642 -2.091414,-0.25636 -2.091414,-0.11727 0,0.25672 3.349046,4.90076 3.943339,5.46813 1.086745,1.03754 2.788278,2.04018 4.133352,2.43562 0.811205,0.23847 1.145812,0.40138 1.145812,0.55782 0,0.12153 -0.09433,0.24529 -0.209601,0.27502 -0.349043,0.0899 -2.001222,-0.38863 -2.892515,-0.8379 -0.771011,-0.38864 -0.975443,-0.42924 -2.543105,-0.50499 -0.985068,-0.0475 -1.744849,-0.0337 -1.799815,0.033 -0.05231,0.0634 0.389167,0.32755 0.981075,0.58694 0.591906,0.25938 1.779108,0.91921 2.638225,1.4663 0.859116,0.54709 1.826129,1.1026 2.148917,1.23444 0.799883,0.32674 1.921513,0.31387 4.946615,-0.0567 z m 25.601672,-1.39044 c 0.154914,-0.0447 0.362459,-0.25474 0.461136,-0.46683 0.19604,-0.42141 0.243496,-1.22765 0.07231,-1.22765 -0.116778,0 -2.796044,1.88361 -2.876904,2.02252 -0.04969,0.0854 1.814464,-0.17551 2.343501,-0.32804 z m -31.419954,-9.56176 c 0.04618,-0.24242 -0.682235,-1.70113 -1.514147,-3.03223 -0.419106,-0.67061 -0.301878,-0.97183 0.333796,-0.8577 1.685294,0.30257 2.724953,0.20152 3.938439,-0.38276 1.135885,-0.54692 0.770816,-1.35678 -0.811596,-1.80043 -1.372243,-0.38471 -1.869971,-0.59973 -2.674338,-1.15531 -0.662774,-0.45777 -0.789894,-0.49599 -1.531881,-0.46052 l -0.809129,0.0387 -0.167683,0.83888 c -0.09222,0.46136 -0.224273,0.88072 -0.293442,0.93188 -0.181335,0.13412 -0.154773,-0.69145 0.0385,-1.1964 0.193225,-0.50485 -0.0063,-0.76284 -0.59028,-0.76284 -0.795708,0 -0.915287,0.11224 -0.918,0.86158 -0.0013,0.38996 -0.07278,0.79221 -0.158564,0.89386 -0.300704,0.3563 -0.377746,0.009 -0.183572,-0.82584 0.224988,-0.9681 0.13523,-1.0791 -0.829069,-1.02521 -0.553656,0.0309 -0.594726,0.0648 -0.72533,0.5982 -0.07614,0.31099 -0.171903,0.69265 -0.212799,0.84813 -0.04091,0.1555 -0.158094,0.28271 -0.260441,0.28271 -0.128916,0 -0.14686,-0.20266 -0.05839,-0.65965 0.223527,-1.15467 0.221353,-1.16225 -0.333759,-1.16225 -0.802474,0 -0.985889,0.44667 -1.062117,2.58657 -0.08764,2.46004 0.253288,3.57734 1.37096,4.49308 0.477225,0.39099 1.250553,0.6836 1.566551,0.59274 0.200645,-0.0577 0.126574,-0.17918 -0.350499,-0.57487 -0.52632,-0.43653 -0.786569,-0.87794 -0.51763,-0.87794 0.04801,0 0.633371,0.42406 1.30082,0.94237 0.937056,0.72765 1.319515,0.94236 1.678648,0.94236 0.655377,0 0.734319,-0.30053 0.229189,-0.87248 -0.503481,-0.5701 -0.73647,-1.1379 -0.466927,-1.1379 0.100352,0 0.338024,0.2285 0.528164,0.50778 0.190139,0.27928 0.653794,0.73182 1.030344,1.00564 1.011879,0.73584 2.350383,0.96483 2.454187,0.41986 z m 37.057347,-0.35074 c 0.706642,-0.27551 1.194284,-0.7355 1.628662,-1.53635 0.394646,-0.7276 0.707181,-0.91866 0.627904,-0.38382 -0.02247,0.15115 -0.204982,0.54322 -0.405722,0.87127 -0.20074,0.32805 -0.315225,0.63375 -0.254415,0.67932 0.203367,0.15238 1.460725,-0.37017 2.033261,-0.84506 0.311332,-0.25819 0.73514,-0.74346 0.941814,-1.07833 0.26637,-0.43159 0.39678,-0.5432 0.44791,-0.3833 0.0397,0.12405 -0.005,0.39139 -0.0992,0.59405 -0.22971,0.49378 0.0395,0.59704 0.52767,0.20234 0.62352,-0.50414 0.99653,-1.61872 1.0884,-3.25222 0.0815,-1.44866 0.0763,-1.47637 -0.27952,-1.47637 -0.41635,0 -0.6896,0.419 -0.6896,1.05745 0,0.51313 -0.31013,1.20422 -0.54039,1.20422 -0.10536,0 -0.12897,-0.15851 -0.0609,-0.40835 0.0613,-0.22461 0.15634,-0.64866 0.21144,-0.94237 0.0943,-0.50306 0.0763,-0.534 -0.30993,-0.534 -0.723533,0 -1.060916,0.29571 -1.060916,0.9299 0,0.74642 -0.320116,0.75196 -0.386891,0.007 -0.04858,-0.54237 -0.07707,-0.57275 -0.503054,-0.53592 -0.383743,0.0332 -0.458304,0.10503 -0.496788,0.47884 -0.07089,0.68951 -0.196737,1.00519 -0.400483,1.00519 -0.126433,0 -0.155864,-0.20213 -0.09003,-0.6187 0.117891,-0.74619 0.0016,-0.83644 -1.175532,-0.91704 -0.664694,-0.0455 -0.984682,-0.005 -1.341445,0.17175 -0.313011,0.15465 -0.77796,0.23178 -1.400657,0.23234 -1.06945,9.4e-4 -1.444806,0.15971 -1.63572,0.69188 -0.197924,0.55174 -0.07849,0.77433 0.578866,1.07875 0.524842,0.24306 1.132397,0.31775 2.953143,0.36308 0.269099,0.007 0.0989,0.42695 -0.537343,1.32677 -0.679695,0.9613 -0.957466,1.67 -0.785872,2.00507 0.121842,0.23797 0.82176,0.24433 1.415388,0.0129 z m 4.612634,-6.57727 c 1.37877,-0.33763 2.12823,-0.68366 2.12823,-0.98267 0,-0.24206 -0.001,-0.24178 -1.70764,0.26966 -1.228729,0.36837 -1.80462,0.46427 -3.206749,0.53399 -1.331839,0.0663 -1.709047,0.12535 -1.709047,0.26781 0,0.46931 2.410436,0.42169 4.495206,-0.0888 z M 60.924433,250.7845 c 0.290258,-0.95489 0.716993,-1.65809 1.808805,-2.98069 1.223405,-1.48199 2.560005,-2.78568 3.932566,-3.83571 0.609748,-0.46648 1.001223,-0.84814 0.869943,-0.84814 -0.346716,0 -3.984533,1.36227 -4.844286,1.81406 -0.801791,0.42134 -3.330546,2.59141 -3.980832,3.41621 -0.224821,0.28514 -0.522958,0.84696 -0.662526,1.24849 -0.236583,0.68061 -0.233492,0.74511 0.04569,0.95276 0.432918,0.32203 2.102255,0.99118 2.382265,0.95494 0.139613,-0.018 0.325311,-0.31706 0.448375,-0.72192 z m 39.333157,-0.74316 c 0.70691,-0.22124 1.32258,-0.47501 1.36811,-0.56393 0.11817,-0.23096 -1.973221,-3.41032 -3.298144,-5.01366 -1.316933,-1.59366 -2.534098,-3.374 -2.701182,-3.95099 -0.06503,-0.22459 -0.209728,-0.40836 -0.321538,-0.40836 -0.11187,0 -0.518609,0.24076 -0.903982,0.535 -0.705803,0.53887 -1.106983,1.21013 -1.542485,2.58082 l -0.211501,0.6657 0.694379,0.74175 c 1.178634,1.25904 1.647128,2.16785 2.040428,3.958 0.19737,0.89837 0.389566,1.71174 0.427084,1.80746 0.05412,0.13797 0.389076,0.16123 1.615861,0.11235 1.239523,-0.0495 1.803515,-0.14188 2.83297,-0.46406 z M 57.311,249.76855 c 0.10295,-0.14413 0.141244,-0.29646 0.08511,-0.33851 -0.05613,-0.0421 -1.175231,-0.0797 -2.486893,-0.0834 -2.013851,-0.006 -2.541036,-0.0496 -3.388889,-0.28029 -0.716883,-0.19514 -1.064582,-0.23566 -1.215695,-0.14168 -0.260507,0.162 -0.276719,0.55847 -0.02755,0.67386 0.271662,0.12581 3.879796,0.40153 5.469274,0.41794 1.235218,0.0128 1.396806,-0.0128 1.564644,-0.24783 z m -0.961925,-0.95135 1.141787,-0.0808 0.395032,-0.57796 c 0.493493,-0.72202 3.007964,-2.97524 3.975577,-3.56252 1.214497,-0.73713 4.607242,-1.94588 6.391097,-2.27697 1.518327,-0.28181 1.664523,-0.33914 2.788385,-1.0931 0.652324,-0.43765 1.186046,-0.84731 1.186046,-0.91037 0,-0.0631 -0.4288,-0.46147 -0.952892,-0.88535 -1.12605,-0.91072 -2.228301,-2.01133 -2.864817,-2.86055 -0.251998,-0.33623 -0.520936,-0.61136 -0.597641,-0.61143 -0.07669,-7e-5 -0.453986,0.18972 -0.838408,0.42179 -1.25304,0.75638 -5.844631,3.03579 -8.160791,4.05128 -3.800292,1.66619 -6.080331,3.64046 -7.361193,6.37396 -0.716272,1.52861 -0.712235,1.54485 0.444316,1.78611 0.530295,0.11061 1.039628,0.22079 1.131854,0.24488 0.289966,0.0756 2.132598,0.0652 3.321648,-0.0189 z m 23.7102,-23.30414 c 0.718512,-0.078 1.41337,-0.18451 1.54413,-0.23669 0.4539,-0.18109 -0.714844,-0.26042 -1.917716,-0.13017 -1.706775,0.18482 -1.708228,0.18457 -1.931179,-0.32163 -0.417071,-0.94695 0.208128,-1.95535 1.355877,-2.18694 1.46785,-0.29618 2.842159,0.3986 2.842159,1.43681 0,0.36823 0.10034,0.60435 0.320116,0.75339 0.296118,0.2008 0.358866,0.20206 0.836963,0.0168 0.308827,-0.11966 0.686147,-0.16842 0.937496,-0.12116 0.40836,0.0768 0.420653,0.0601 0.420653,-0.56899 0,-0.803 0.331829,-1.30588 0.998182,-1.51271 0.64524,-0.20026 0.648279,-0.33683 0.0098,-0.4419 -0.601449,-0.099 -0.769492,-0.26408 -0.508578,-0.49965 0.150801,-0.13615 0.122144,-0.2026 -0.131196,-0.30419 -0.3889,-0.15598 -0.535914,-0.0693 -0.535914,0.31596 0,0.44875 -0.358397,0.92733 -0.694434,0.92733 -0.265675,0 -0.292944,-0.0773 -0.210365,-0.59683 0.05219,-0.32826 0.119568,-0.65919 0.149756,-0.73541 0.03017,-0.0762 -0.09075,-0.23201 -0.268735,-0.3462 -0.23843,-0.15298 -0.29419,-0.29545 -0.211848,-0.54129 0.109775,-0.3277 0.104782,-0.33 -0.279046,-0.12856 -0.418152,0.21947 -0.832867,0.0985 -0.832867,-0.24288 0,-0.28097 -0.221868,-0.20092 -0.707597,0.25523 -0.524362,0.49244 -1.925789,1.23842 -2.198547,1.17028 -0.287177,-0.0717 -0.135245,-2.1517 0.235523,-3.22426 0.177691,-0.51405 0.323076,-1.17449 0.323076,-1.46768 0,-0.29317 0.155674,-1.4275 0.345934,-2.52071 0.317206,-1.8226 0.329049,-2.15721 0.142587,-4.02944 -0.111845,-1.12297 -0.255265,-2.04177 -0.318725,-2.04177 -0.199192,0 -0.505882,2.7036 -0.677023,5.96828 -0.09056,1.72766 -0.247472,3.4579 -0.348674,3.84497 -0.230212,0.88051 -1.153723,2.31179 -1.491647,2.31179 -0.387815,0 -0.262319,-6.42719 0.169283,-8.66972 0.172904,-0.89839 0.404096,-2.73599 0.513757,-4.08357 0.207957,-2.55548 0.319058,-3.01555 0.728208,-3.01555 0.30657,0 0.462433,0.17711 0.718472,0.81646 l 0.201379,0.50284 -0.09868,-0.62824 c -0.138458,-0.88154 -0.446425,-1.5974 -0.981607,-2.28168 l -0.459829,-0.58797 -0.293077,0.42965 c -0.945163,1.38555 -1.945013,4.33389 -2.340121,6.90051 -0.10107,0.65651 -0.228292,2.77682 -0.282729,4.7118 -0.09221,3.27774 -0.07197,3.65123 0.296163,5.4657 0.444213,2.18939 0.476925,2.74529 0.186228,3.1645 -0.270791,0.3905 -0.87268,1.73249 -0.87268,1.94576 0,0.0939 0.245236,0.28268 0.544966,0.41962 0.644507,0.29447 2.639256,0.33965 4.772083,0.10818 z m -1.760361,-3.15645 c 0.09883,-0.24516 1.809029,-0.84811 2.405553,-0.84811 0.294959,0 0.629185,0.0839 0.742727,0.18638 0.171261,0.15463 0.13004,0.20817 -0.241907,0.31413 -0.246589,0.0702 -0.65094,0.12974 -0.898555,0.13218 -0.247615,0.002 -0.638852,0.0853 -0.869414,0.18402 -0.527203,0.22582 -1.224537,0.24507 -1.138404,0.0314 z m 10.221936,2.83904 c 0.380388,-0.25796 0.392873,-0.49427 0.03164,-0.59816 -0.17471,-0.0503 -0.365482,0.0177 -0.523007,0.18622 -0.200915,0.21495 -0.355545,0.25017 -0.814909,0.18559 -0.656601,-0.0923 -1.831506,0.0423 -1.627456,0.18654 0.420714,0.29726 2.512243,0.32563 2.933757,0.0399 z m -9.418895,-0.6716 c 0.137412,-0.4362 0.628365,-0.47679 0.83524,-0.069 0.140531,0.27697 0.235431,0.31363 0.629296,0.24311 0.613527,-0.10992 0.883009,-0.28045 0.883009,-0.55896 0,-0.35185 -0.221251,-0.38902 -1.759015,-0.29552 l -1.426939,0.0868 v 0.40154 c 0,0.22086 0.05292,0.4412 0.11758,0.48967 0.230412,0.17265 0.62386,0.0104 0.720824,-0.29752 z m 6.436301,-0.21989 c 0.05693,-0.12093 0.147478,-0.29055 0.201213,-0.37694 0.06173,-0.0992 -0.0329,-0.15705 -0.256894,-0.15705 -0.38804,0 -0.602816,0.26919 -0.451117,0.5654 0.129929,0.25371 0.379877,0.23822 0.506798,-0.0314 z m 2.104217,-0.0629 c 0.226295,-0.4393 -0.142573,-0.64188 -0.976707,-0.5363 -0.37887,0.048 -0.688856,0.10678 -0.688856,0.13082 0,0.0239 0.07359,0.18863 0.163532,0.3659 0.133237,0.26258 0.274017,0.32229 0.759959,0.32229 0.463605,0 0.628884,-0.063 0.742072,-0.28271 z m -7.450586,-0.83849 c 0.481443,-0.0825 0.486682,-0.0905 0.121985,-0.18296 -0.440773,-0.11177 -1.379607,0.0129 -1.379607,0.18331 0,0.12946 0.50159,0.12933 1.257614,-3.8e-4 z m 6.62343,-0.13528 c 0.187085,-0.0906 0.09051,-0.12228 -0.377281,-0.12371 -0.345845,-9.7e-4 -0.628807,0.0546 -0.628807,0.12371 0,0.16003 0.675614,0.16003 1.006088,0 z m 1.222006,-2.79283 c 1.817329,-2.76509 3.212211,-5.65931 3.387254,-7.02814 0.05602,-0.43796 0.141781,-0.99419 0.190724,-1.23606 0.05348,-0.26461 0.02896,-0.38972 -0.06172,-0.31412 -0.08275,0.0691 -0.242515,0.5497 -0.354848,1.068 -0.288926,1.33299 -1.378805,3.70014 -2.516518,5.46569 -1.005047,1.55969 -1.347728,1.90165 -1.780919,1.77708 -0.369463,-0.1062 -0.324064,-0.35395 0.395722,-2.15898 0.357157,-0.89565 0.733701,-2.0808 0.836744,-2.63364 0.187021,-1.00342 0.915058,-7.10075 1.117697,-9.36078 0.137035,-1.5279 0.188065,-1.65754 0.633901,-1.60935 0.697796,0.0754 2.842662,2.18071 1.599578,5.00185 l 0.145262,1.57059 0.02278,-2.38731 c 0.01899,-1.99292 -0.03243,-2.55997 -0.311602,-3.43241 -0.183903,-0.57481 -0.423713,-1.1685 -0.532913,-1.31931 -0.109187,-0.15082 -0.241185,-0.46041 -0.293278,-0.68802 -0.05205,-0.22758 -0.170169,-0.41927 -0.262389,-0.42593 -0.30937,-0.0224 -1.07983,1.32301 -2.266329,3.95767 l -1.177811,2.61534 0.106494,2.91318 c 0.150642,4.12169 -0.189459,6.65175 -1.121673,8.34595 -0.216982,0.39435 -0.203881,0.42218 0.426273,0.90574 0.357583,0.27439 0.703375,0.47425 0.768442,0.44411 0.06503,-0.0301 0.537217,-0.69215 1.049195,-1.47115 z m -9.863153,-2.98097 c 0.05525,-0.31428 0.212854,-2.23942 0.35023,-4.27804 0.137381,-2.03865 0.328828,-4.18722 0.425449,-4.77464 0.181266,-1.10201 0.06925,-2.34795 -0.180291,-2.00532 -0.07349,0.10085 -0.214852,1.14464 -0.314154,2.31945 -0.0993,1.17481 -0.292086,2.65755 -0.428411,3.29499 -0.198909,0.93005 -0.356605,4.45958 -0.273823,6.12862 0.02118,0.42674 0.307447,-0.0391 0.421,-0.68506 z m 11.050996,-1.32809 c 1.148379,-2.22997 1.319023,-2.90487 1.404424,-5.55498 0.04874,-1.51033 0.0031,-2.8092 -0.120419,-3.46359 -0.191309,-1.0099 -0.392287,-1.47311 -0.578549,-1.33352 -0.0489,0.0366 -0.279827,1.96322 -0.513149,4.28124 -0.440803,4.37957 -0.622269,5.70063 -0.912842,6.64542 -0.367348,1.19442 -0.06709,0.95506 0.720583,-0.57457 z"
         id="path8712"
         inkscape:connector-curvature="0"
         sodipodi:nodetypes="cccssccccscscccccsscccscssscsccscsscccsccscssssccscccccssccssccscssccccccscscscsscccccccccscccccccccccscscccssscsccccccccsscccscssscscccsccccccsscccscsscscscccssccccscccccscsscccccsccscccccccsccccscsccsssscccccsccccsccsccssccccscscccscccsccccccccsscsccsscscscccccssccsscssccssscccsscscccscccccsccsccscsccccccscccccsccccsccsccccscscsscccscscscccccscsccscccsssscsssscsssccccccccccssccssccsscccccccccscsccccsccccccccccccccccsssccsccsccccccsscscccsccccsscccccscccsssssssssscccccsssscsccccsccccccccccccccccsscsccccscccccscscccsccccsccccccscscssscsscccscsccccccsscscccsscsscs" />
    </g>
  </g>
  <g
     id="g7737"
     inkscape:groupmode="layer"
     inkscape:label="newlayer" />
  <g
     id="g7842"
     inkscape:groupmode="layer"
     inkscape:label="newlayer" />
</svg>
