<?xml version="1.0" encoding="UTF-8" standalone="no"?>
<!-- Created with Inkscape (http://www.inkscape.org/) -->

<svg
   xmlns:dc="http://purl.org/dc/elements/1.1/"
   xmlns:cc="http://creativecommons.org/ns#"
   xmlns:rdf="http://www.w3.org/1999/02/22-rdf-syntax-ns#"
   xmlns:svg="http://www.w3.org/2000/svg"
   xmlns="http://www.w3.org/2000/svg"
   xmlns:sodipodi="http://sodipodi.sourceforge.net/DTD/sodipodi-0.dtd"
   xmlns:inkscape="http://www.inkscape.org/namespaces/inkscape"
   id="svg8"
   version="1.1"
   viewBox="0 0 383 289"
   height="289mm"
   width="383mm"
   inkscape:version="0.92.4 (5da689c313, 2019-01-14)"
   sodipodi:docname="cutter box rétt stærð.svg">
  <defs
     id="defs2" />
  <sodipodi:namedview
     id="base"
     pagecolor="#ffffff"
     bordercolor="#666666"
     borderopacity="1.0"
     inkscape:pageopacity="0.0"
     inkscape:pageshadow="2"
     inkscape:zoom="0.35"
     inkscape:cx="477.02277"
     inkscape:cy="560.38004"
     inkscape:document-units="mm"
     inkscape:current-layer="layer1"
     showgrid="false"
     inkscape:window-width="1920"
     inkscape:window-height="986"
     inkscape:window-x="-11"
     inkscape:window-y="-11"
     inkscape:window-maximized="1"
     inkscape:snap-text-baseline="true" />
  <metadata
     id="metadata5">
    <rdf:RDF>
      <cc:Work
         rdf:about="">
        <dc:format>image/svg+xml</dc:format>
        <dc:type
           rdf:resource="http://purl.org/dc/dcmitype/StillImage" />
        <dc:title></dc:title>
      </cc:Work>
    </rdf:RDF>
  </metadata>
  <g
     inkscape:label="Layer 1"
     inkscape:groupmode="layer"
     id="layer1"
     transform="translate(0,-8)">
    <g
       id="g363">
      <path
         inkscape:connector-curvature="0"
         d="m 203.07817,168.13652 h 15.92318 v -3.1 h 16.20818 v 3.1 h 15.82818 v -3.1 h 16.20818 v 3.1 h 15.82819 v -3.1 h 16.20818 v 3.1 h 15.82818 v -3.1 h 16.20818 v 3.1 h 15.82818 v -3.1 h 16.20818 v 3.1 h 15.92319"
         style="fill:none;stroke:#000000;stroke-width:1"
         inkscape:label="part"
         id="path198" />
      <path
         inkscape:connector-curvature="0"
         d="m 379.27817,168.13652 v 12.395 h -3.1 v 15.21 h 3.1 v 12.395"
         style="fill:none;stroke:#000000;stroke-width:1"
         inkscape:label="part"
         id="path200" />
      <path
         inkscape:connector-curvature="0"
         d="m 379.27817,208.13652 h -15.92319 v 3.1 H 347.1468 v -3.1 h -15.82818 v 3.1 h -16.20818 v -3.1 h -15.82818 v 3.1 h -16.20818 v -3.1 h -15.82819 v 3.1 h -16.20818 v -3.1 h -15.82818 v 3.1 h -16.20818 v -3.1 h -15.92318"
         style="fill:none;stroke:#000000;stroke-width:1"
         inkscape:label="part"
         id="path202" />
      <path
         inkscape:connector-curvature="0"
         d="m 203.07817,208.13652 v -12.395 h 3.1 v -15.21 h -3.1 v -12.395"
         style="fill:none;stroke:#000000;stroke-width:1"
         inkscape:label="part"
         id="path204" />
    </g>
    <g
       id="g351"
       transform="translate(1.6036172,70.559155)">
      <path
         inkscape:connector-curvature="0"
         d="m 319.9435,-45.055186 h 12.205 v -3.1 h 15.59 v 3.1 h 12.205"
         style="fill:none;stroke:#000000;stroke-width:1"
         inkscape:label="part"
         id="path206" />
      <path
         inkscape:connector-curvature="0"
         d="m 359.9435,-45.055186 v 14.83357 h 3.1 v 18.21857 h -3.1 V 5.8355237 h 3.1 V 24.054104 h -3.1 v 17.83857 h 3.1 v 18.21857 h -3.1 v 14.83357"
         style="fill:none;stroke:#000000;stroke-width:1"
         inkscape:label="part"
         id="path208" />
      <path
         inkscape:connector-curvature="0"
         d="m 359.9435,74.944814 h -12.205 v 3.1 h -15.59 v -3.1 h -12.205"
         style="fill:none;stroke:#000000;stroke-width:1"
         inkscape:label="part"
         id="path210" />
      <path
         inkscape:connector-curvature="0"
         d="m 319.9435,74.944814 v -14.83357 h -3.1 v -18.21857 h 3.1 v -17.83857 h -3.1 V 5.8355237 h 3.1 V -12.003046 h -3.1 v -18.21857 h 3.1 v -14.83357"
         style="fill:none;stroke:#000000;stroke-width:1"
         inkscape:label="part"
         id="path212" />
    </g>
    <g
       id="g345"
       transform="translate(1.6036172,70.559155)">
      <path
         inkscape:connector-curvature="0"
         d="m 233.63816,-45.589725 h 12.205 v -3.1 h 15.59 v 3.1 h 12.205"
         style="fill:none;stroke:#000000;stroke-width:1"
         inkscape:label="part"
         id="path222" />
      <path
         inkscape:connector-curvature="0"
         d="m 273.63816,-45.589725 v 14.833571 h 3.1 v 18.218572 h -3.1 V 5.3009885 h 3.1 V 23.519561 h -3.1 v 17.838571 h 3.1 v 18.21857 h -3.1 V 74.41027"
         style="fill:none;stroke:#000000;stroke-width:1"
         inkscape:label="part"
         id="path224" />
      <path
         inkscape:connector-curvature="0"
         d="m 273.63816,74.41027 h -12.205 v 3.1 h -15.59 v -3.1 h -12.205"
         style="fill:none;stroke:#000000;stroke-width:1"
         inkscape:label="part"
         id="path226" />
      <path
         inkscape:connector-curvature="0"
         d="M 233.63816,74.41027 V 59.576702 h -3.1 v -18.21857 h 3.1 V 23.519561 h -3.1 V 5.3009885 h 3.1 V -12.537582 h -3.1 v -18.218572 h 3.1 v -14.833571"
         style="fill:none;stroke:#000000;stroke-width:1"
         inkscape:label="part"
         id="path228" />
    </g>
    <g
       id="g357">
      <path
         inkscape:connector-curvature="0"
         d="m 204.68178,241.36627 h 15.92319 v -3.1 h 16.20818 v 3.1 h 15.82818 v -3.1 h 16.20818 v 3.1 h 15.82818 v -3.1 h 16.20817 v 3.1 h 15.82819 v -3.1 h 16.20818 v 3.1 h 15.82818 v -3.1 h 16.20818 v 3.1 h 15.92318"
         style="fill:none;stroke:#000000;stroke-width:1"
         inkscape:label="part"
         id="path238" />
      <path
         inkscape:connector-curvature="0"
         d="m 380.88177,241.36627 v 12.395 h -3.1 v 15.21 h 3.1 v 12.395"
         style="fill:none;stroke:#000000;stroke-width:1"
         inkscape:label="part"
         id="path240" />
      <path
         inkscape:connector-curvature="0"
         d="m 380.88177,281.36627 h -15.92318 v 3.1 h -16.20818 v -3.1 h -15.82818 v 3.1 h -16.20818 v -3.1 h -15.82819 v 3.1 h -16.20817 v -3.1 h -15.82818 v 3.1 h -16.20818 v -3.1 h -15.82818 v 3.1 h -16.20818 v -3.1 h -15.92319"
         style="fill:none;stroke:#000000;stroke-width:1"
         inkscape:label="part"
         id="path242" />
      <path
         inkscape:connector-curvature="0"
         d="m 204.68178,281.36627 v -12.395 h 3.1 v -15.21 h -3.1 v -12.395"
         style="fill:none;stroke:#000000;stroke-width:1"
         inkscape:label="part"
         id="path244" />
    </g>
    <g
       id="g370">
      <path
         inkscape:connector-curvature="0"
         d="m 9.86501,168.33313 h 16.11318 v 3.1 h 15.82818 v -3.1 h 16.20819 v 3.1 h 15.82818 v -3.1 h 16.20818 v 3.1 h 15.82818 v -3.1 h 16.20818 v 3.1 h 15.82818 v -3.1 h 16.20819 v 3.1 h 15.82818 v -3.1 h 16.11318"
         style="fill:none;stroke:#000000;stroke-width:1"
         inkscape:label="part"
         id="path230" />
      <path
         inkscape:connector-curvature="0"
         d="m 186.06501,168.33313 v 18.12357 h -3.1 v 17.83857 h 3.1 v 18.21857 h -3.1 v 17.83857 h 3.1 v 18.21857 h -3.1 v 17.83858 h 3.1 v 18.12357"
         style="fill:none;stroke:#000000;stroke-width:1"
         inkscape:label="part"
         id="path232" />
      <path
         inkscape:connector-curvature="0"
         d="m 186.06501,294.53313 h -16.11318 v -3.1 h -15.82818 v 3.1 h -16.20819 v -3.1 h -15.82818 v 3.1 H 105.8791 v -3.1 H 90.05092 v 3.1 H 73.84274 v -3.1 H 58.01456 v 3.1 H 41.80637 v -3.1 H 25.97819 v 3.1 H 9.86501"
         style="fill:none;stroke:#000000;stroke-width:1"
         inkscape:label="part"
         id="path234" />
      <path
         inkscape:connector-curvature="0"
         d="m 9.86501,294.53313 v -18.12357 h 3.1 v -17.83858 h -3.1 v -18.21857 h 3.1 v -17.83857 h -3.1 v -18.21857 h 3.1 V 186.4567 h -3.1 v -18.12357"
         style="fill:none;stroke:#000000;stroke-width:1"
         inkscape:label="part"
         id="path236" />
      <path
         inkscape:connector-curvature="0"
         id="path300"
         d="m 58.701414,286.73056 c -0.769459,-0.13932 -1.876505,-0.43998 -2.460108,-0.66815 -0.63516,-0.2483 -1.830805,-0.45708 -2.978647,-0.52009 -2.246078,-0.12327 -4.429418,-0.74628 -4.988566,-1.42346 -0.244155,-0.29569 -0.778292,-0.52524 -1.397331,-0.60052 -1.267066,-0.15404 -4.47484,-1.48703 -5.107606,-2.12245 -1.247214,-1.25242 -0.868889,-2.40011 1.17569,-3.5666 3.367525,-1.92124 9.615034,-3.03848 17.187906,-3.07367 l 4.337508,-0.0202 -1.65183,-1.18365 c -1.283185,-0.91949 -2.474252,-2.23951 -5.336929,-5.91478 -2.026807,-2.6021 -3.685088,-4.86145 -3.685088,-5.02076 0,-0.1593 -0.473189,-0.79895 -1.051525,-1.42146 -1.418369,-1.52666 -1.827203,-3.13857 -1.648065,-6.49775 0.112855,-2.1166 0.273967,-2.87291 0.762647,-3.58063 0.472841,-0.68477 0.540402,-0.97854 0.285334,-1.24064 -0.245119,-0.25185 -0.228766,-0.51745 0.06137,-0.99624 0.217562,-0.35907 0.739066,-1.41522 1.158895,-2.34701 1.582547,-3.5124 4.472734,-6.63158 8.273781,-8.92935 1.359952,-0.8221 3.793537,-1.94415 6.331783,-2.91939 4.642693,-1.78378 15.085321,-6.27757 16.29238,-7.01108 0.591878,-0.35969 0.758521,-0.62692 0.660602,-1.05934 -0.276071,-1.21917 2.456202,-4.92038 5.453073,-7.38686 3.340886,-2.74962 4.219399,-3.73972 5.064398,-5.7077 0.818167,-1.90546 2.314698,-4.65414 3.170181,-5.82262 0.473068,-0.64614 0.459665,-0.84625 -0.234375,-3.49683 -1.745303,-6.66553 -0.955189,-18.24603 1.675318,-24.55452 0.83322,-1.99824 2.96574,-5.362 3.70178,-5.83906 0.61909,-0.40126 0.79861,-0.2677 2.4366,1.81293 1.69981,2.15913 2.13606,3.7337 2.84285,10.26065 0.48615,4.4894 0.48737,4.99044 0.0175,7.27497 -0.27753,1.34941 -0.64426,3.39522 -0.81494,4.54627 -0.17071,1.15103 -0.51948,2.53309 -0.77509,3.0712 -0.45214,0.95191 -0.64819,3.10752 -0.28261,3.10752 0.45832,0 1.85904,-0.89556 2.71729,-1.73731 1.17886,-1.15622 1.63355,-1.26078 2.05719,-0.47312 0.36076,0.67076 0.72023,0.78499 0.99734,0.31695 0.23392,-0.39512 1.31034,-0.38379 1.54722,0.0163 0.10267,0.17341 0.18665,0.61139 0.18665,0.97332 0,0.44697 0.17262,0.69752 0.53816,0.78109 0.29597,0.0677 0.7023,0.17338 0.90292,0.23493 0.20064,0.0615 0.59361,-0.11445 0.87329,-0.3911 1.60842,-1.59105 2.48965,-7.30347 2.14004,-13.87248 -0.20563,-3.86384 -0.20202,-3.89555 0.61202,-5.38148 0.45038,-0.8221 1.43117,-2.70556 2.17952,-4.18547 1.64279,-3.24869 3.364,-5.40074 4.53305,-5.66773 1.0079,-0.23018 1.1206,-0.15925 1.63373,1.02825 0.22628,0.5237 0.7951,1.71455 1.26405,2.64634 l 0.85262,1.69417 v 6.2784 c 0,5.43545 -0.0773,6.49247 -0.57584,7.8729 -0.90997,2.51972 -3.08885,6.14496 -5.87519,9.77525 l -2.57036,3.34887 0.74365,0.70933 c 0.40903,0.39014 0.74367,0.86052 0.74367,1.04529 0,0.19041 0.49961,0.49418 1.15318,0.70116 0.90893,0.28786 1.17268,0.49454 1.24526,0.97584 0.0623,0.41344 0.36027,0.71404 0.92254,0.93089 1.74438,0.67276 6.5006,3.95658 9.72696,6.71573 4.66619,3.99051 7.85291,8.08439 7.8606,10.09822 0.003,0.8265 -2.45082,3.0548 -4.85963,4.41273 l -1.85015,1.04299 0.54111,1.14948 c 0.693,1.47212 2.25968,3.47455 4.81417,6.15316 1.83142,1.92038 5.22493,6.18517 6.69514,8.41412 0.36499,0.55336 0.50245,1.08753 0.38472,1.49487 -0.1008,0.34859 -0.17786,1.49318 -0.17133,2.54352 0.0278,4.45337 -1.82572,7.5577 -4.51242,7.5577 -0.41723,0 -1.13311,0.23379 -1.59085,0.51955 -1.07441,0.6707 -3.93526,1.54142 -4.66063,1.41848 -0.96626,-0.16378 -1.31037,0.15736 -2.33441,2.17862 -0.97551,1.92545 -2.83074,4.22376 -5.35189,6.63005 l -1.27001,1.21214 h 0.95159 c 0.52336,0 1.56361,0.0999 2.31163,0.22197 1.39833,0.22822 2.85232,1.16417 5.67757,3.65475 0.59196,0.52182 1.38765,1.22168 1.76821,1.55522 0.80218,0.7031 0.9078,1.81989 0.26623,2.81513 -0.47008,0.72918 -1.94815,1.22569 -4.25914,1.43067 -0.72144,0.064 -2.55712,0.2442 -4.07932,0.4005 -5.31607,0.54585 -18.17787,1.27937 -22.44843,1.28027 -4.7829,7.5e-4 -5.81944,-0.2073 -6.73371,-1.35322 -0.44777,-0.56123 -0.53704,-0.57905 -3.48157,-0.69532 -1.662125,-0.0656 -3.276555,-0.18263 -3.587617,-0.26001 -0.494166,-0.1229 -0.540227,-0.0658 -0.364564,0.45257 0.340131,1.00377 -0.220741,1.57995 -1.887217,1.9387 -2.638756,0.56808 -6.248135,0.91987 -9.278456,0.90434 -2.007351,-0.009 -3.79814,0.11686 -5.571914,0.39561 -1.917672,0.30136 -3.637668,0.41145 -6.457771,0.41334 -2.114164,10e-4 -5.158536,0.13147 -6.765294,0.28902 -5.035522,0.49375 -5.348006,0.50509 -6.780483,0.24573 z m 4.627896,-0.75095 c 0.76109,-0.10943 4.08223,-0.27821 7.380311,-0.37493 3.881231,-0.11383 6.593117,-0.28971 7.687821,-0.4986 1.011556,-0.19304 3.298057,-0.35788 5.688987,-0.41012 4.103522,-0.0897 6.284608,-0.29222 8.840996,-0.82096 1.339242,-0.27697 1.460303,-0.35462 1.455978,-0.93385 -0.0023,-0.34747 -0.106341,-0.72324 -0.230625,-0.83507 -0.124268,-0.11181 -1.362348,-0.48064 -2.751299,-0.81964 l -2.52538,-0.61635 -4.239912,0.35207 c -2.331945,0.1936 -5.396832,0.49519 -6.810865,0.67015 -3.14386,0.38899 -6.79535,0.41078 -8.125002,0.0485 -0.544238,-0.14832 -2.485712,-1.07588 -4.314379,-2.06128 -3.664957,-1.9749 -8.745458,-4.04714 -9.922426,-4.04714 -1.603213,0 -6.831472,0.86091 -8.684929,1.43011 -2.55418,0.78438 -4.668203,2.08502 -4.666146,2.8708 0.0023,0.73496 0.958847,1.48078 2.90317,2.26274 2.033735,0.8179 2.503912,0.79466 2.748032,-0.13577 0.107853,-0.41108 0.575281,-1.03241 1.03873,-1.38072 0.867076,-0.65167 5.457954,-2.85471 5.948891,-2.85471 0.843831,0 -0.03127,0.65464 -2.374845,1.7765 -2.054632,0.98357 -2.784167,1.4651 -3.246965,2.14322 -1.153699,1.69044 0.197049,2.72039 4.128801,3.14819 1.13135,0.12309 1.153177,0.11345 1.153177,-0.50821 0,-0.34853 0.163854,-0.98815 0.364134,-1.42142 0.597305,-1.29216 6.093638,-4.33709 6.093638,-3.37581 0,0.0923 -0.847028,0.63221 -1.882294,1.19967 -2.319671,1.27146 -2.89243,1.73417 -3.24529,2.6218 -0.414913,1.0437 -0.171548,1.53026 1.000178,1.99963 1.95577,0.78343 3.925058,0.95419 6.587513,0.57122 z m 56.42863,-2.65634 c 2.19871,-0.16132 5.1047,-0.34286 6.45776,-0.4034 4.15788,-0.18607 12.54385,-1.24386 12.98899,-1.63844 0.21331,-0.18907 0.38782,-0.77483 0.38782,-1.30166 0,-0.81806 -0.15999,-1.07269 -1.09584,-1.7441 -1.57271,-1.1283 -3.2404,-1.58359 -6.43834,-1.75771 -1.7267,-0.094 -2.76421,-0.23883 -2.84514,-0.39713 -0.16102,-0.31497 4.6976,-0.35115 5.94302,-0.0442 1.23512,0.30436 1.23386,0.1038 -0.003,-0.50777 -0.88997,-0.43998 -1.5426,-0.56612 -3.45505,-0.66789 -1.46458,-0.0779 -2.40599,-0.21983 -2.48498,-0.3746 -0.094,-0.18399 0.45591,-0.24915 2.1023,-0.24915 1.2262,0 2.14501,-0.0547 2.0418,-0.12163 -0.10323,-0.0669 -1.11307,-0.24737 -2.24411,-0.40104 -2.59195,-0.35214 -2.76485,-0.23291 -2.83668,1.95618 -0.0671,2.04594 -0.48145,3.02191 -1.45905,3.43708 -0.72512,0.30795 -4.21628,0.88763 -8.13562,1.35087 -0.93023,0.10997 -2.5216,0.44936 -3.5364,0.75426 -2.69941,0.81107 -5.50603,1.19617 -8.7177,1.19617 -2.73143,0 -2.82368,0.0145 -2.50961,0.39489 0.74506,0.90232 1.66316,1.02362 6.92213,0.91463 2.70612,-0.0562 6.71917,-0.234 8.91788,-0.39532 z m -9.79933,-1.80998 c 6.88133,-0.85337 14.13363,-4.49186 19.57643,-9.82156 3.21741,-3.15055 4.54567,-4.72036 5.56169,-6.57317 l 0.79241,-1.44502 h -1.53755 c -1.34628,0 -1.58161,-0.0627 -1.89184,-0.50401 -0.43335,-0.61646 0.24797,-2.22079 1.62571,-3.82805 0.4919,-0.57386 0.89436,-1.07713 0.89436,-1.11837 0,-0.0414 -0.82122,-0.12327 -1.82495,-0.18226 -3.5741,-0.21005 -5.39529,-1.36692 -4.6591,-2.95955 0.59268,-1.28216 1.24729,-1.57277 3.54266,-1.57277 2.20318,0 3.70944,-0.27623 3.38153,-0.62013 -0.11656,-0.12222 -0.19493,-0.69972 -0.17418,-1.28332 0.0693,-1.94888 -1.08725,-5.63574 -2.24778,-7.16535 -1.26816,-1.67146 -2.31103,-2.59107 -2.93839,-2.59107 -0.83764,0 -0.31551,-2.18022 1.08455,-4.52867 0.19017,-0.31899 0.13747,-0.32138 -0.75126,-0.034 -1.64459,0.53177 -1.72703,0.19093 -0.15147,-0.62634 3.38889,-1.75789 10.3837,-5.98452 11.52391,-6.96334 l 1.21949,-1.0469 -0.94202,-1.86841 c -1.28565,-2.54998 -3.18219,-4.72351 -6.96607,-7.9835 -3.55553,-3.06326 -5.70661,-4.63612 -8.4376,-6.16958 l -1.83287,-1.02916 -1.02068,0.35626 c -0.83738,0.2923 -1.47639,0.33604 -3.55838,0.24354 -1.39576,-0.062 -2.41828,-0.0434 -2.27229,0.0413 1.22153,0.70906 4.00186,2.06237 4.80748,2.34003 0.54627,0.18827 2.37701,0.57858 4.06834,0.86738 2.48707,0.42465 3.15699,0.6189 3.50328,1.01583 0.37205,0.42647 0.36199,0.58117 -0.0768,1.18049 -0.27772,0.37933 -0.79775,0.8082 -1.15562,0.95306 -1.11844,0.45272 -5.71423,0.72233 -7.68918,0.45109 -4.26558,-0.58586 -9.49608,-2.98732 -9.49608,-4.35992 0,-1.0609 1.96926,-1.40687 3.51686,-0.61783 1.15868,0.59072 0.57907,0.89055 -0.86107,0.44545 -1.33077,-0.41132 -2.01273,-0.18542 -1.46021,0.4837 0.53678,0.6501 3.06987,1.99329 4.76367,2.52598 2.86763,0.90187 5.15133,1.16583 7.9638,0.92051 2.74554,-0.23949 3.60518,-0.57817 3.60518,-1.4203 0,-0.4712 -0.15492,-0.56371 -1.14581,-0.68419 -4.5373,-0.5517 -7.38882,-1.55733 -11.52228,-4.0635 -1.10943,-0.67267 -2.17546,-1.22302 -2.36894,-1.22302 -0.1935,0 -0.86776,0.22127 -1.49838,0.49171 -1.56861,0.67271 -6.42532,1.16084 -10.65686,1.07109 -2.889086,-0.0613 -3.281207,-0.1153 -3.995087,-0.55041 -0.435354,-0.26535 -0.866491,-0.4339 -0.958081,-0.37452 -0.09153,0.0594 -0.512549,0.94597 -0.935472,1.97024 -0.422922,1.02427 -0.88304,1.91035 -1.022491,1.96903 -0.139461,0.0588 -0.874623,0.73457 -1.633702,1.50194 -0.759069,0.76736 -2.269405,2.15759 -3.356298,3.08936 -1.9491,1.67097 -4.147177,4.55344 -4.477071,5.87108 -0.128615,0.51371 0.09973,0.92271 1.127374,2.01906 4.456197,4.7542 9.182772,7.65281 13.767518,8.44303 1.92196,0.33126 1.67797,0.72706 -0.38439,0.62355 -0.33826,-0.0169 -1.763718,-0.39266 -3.167686,-0.83487 l -2.552645,-0.80405 -3.094803,1.92531 c -1.702144,1.05891 -3.805393,2.22057 -4.673899,2.58148 -2.71421,1.12785 -6.283236,3.8645 -9.846496,7.55009 -1.846182,1.90955 -2.75224,3.2874 -3.191269,4.853 -0.256231,0.91374 -0.218109,1.03905 0.441214,1.45034 1.567252,0.97769 1.382942,2.24808 -0.448083,3.08854 l -1.317612,0.60482 0.175756,2.09279 c 0.329428,3.92298 2.39079,9.10549 4.909185,12.3423 3.358413,4.31643 9.950262,7.95572 16.48895,9.10334 1.798671,0.31571 6.093328,0.55862 11.401178,0.64491 1.12676,0.0183 3.12936,-0.10074 4.4502,-0.26452 z m 6.80107,-39.10443 c -0.29598,-0.0501 -0.53814,-0.19708 -0.53814,-0.32656 0,-0.1636 0.91436,-0.24113 2.99825,-0.25418 2.32943,-0.0146 3.49557,-0.12885 5.22773,-0.51211 2.29429,-0.50764 2.66286,-0.48096 1.64038,0.11878 -1.39431,0.81786 -6.87292,1.38994 -9.32822,0.97407 z m -1.13007,-1.91683 c -1.55763,-0.35182 -1.65842,-0.80878 -0.13227,-0.59964 2.11091,0.28925 6.26428,0.13483 8.41201,-0.31277 2.37049,-0.49401 2.46011,-0.49964 2.46011,-0.15473 0,0.92113 -7.90768,1.70686 -10.73985,1.06714 z m -0.94564,-1.83623 c -2.38715,-0.41921 -3.99767,-0.90912 -3.99767,-1.21607 0,-0.14434 0.17298,-0.22531 0.38439,-0.17994 4.98529,1.07007 6.71109,1.14037 8.8514,0.36056 1.426,-0.51955 1.55651,-0.5314 3.29273,-0.29897 2.54876,0.34121 2.70635,0.32343 4.03669,-0.45558 0.65522,-0.38368 1.27834,-0.6976 1.38469,-0.6976 0.51582,0 0.0822,0.61097 -0.89773,1.26496 -0.95118,0.6348 -1.27679,0.72817 -2.53902,0.72817 -0.79635,0 -1.92286,-0.0882 -2.50337,-0.19618 -0.89978,-0.16726 -1.24867,-0.12281 -2.36542,0.30138 -1.6765,0.63681 -3.51534,0.76357 -5.64669,0.38927 z m 3.35752,-5.4781 c 1.41009,-0.78143 3.41217,-1.19509 5.78417,-1.19509 2.09021,0 3.77385,0.40244 3.77385,0.90203 0,0.36303 0.0248,0.36354 -1.42248,-0.0285 -1.65758,-0.44888 -4.55335,-0.27592 -6.68203,0.39909 -2.15161,0.68231 -2.76556,0.64952 -1.45351,-0.0775 z m 0.0988,-3.82965 c 0.0687,-0.13354 0.94312,-0.44822 1.94322,-0.6993 1.94576,-0.4885 3.41986,-1.26859 3.07689,-1.62826 -0.32433,-0.34014 -1.53016,-0.26227 -3.31415,0.21402 -1.23507,0.32973 -2.29098,0.43752 -4.39344,0.44844 -3.24542,0.0168 -3.90255,-0.15975 -6.89808,-1.85418 -2.49826,-1.41318 -4.30222,-2.99816 -5.90037,-5.18419 -0.6904,-0.94437 -1.46789,-2.00514 -1.72774,-2.35724 -0.59813,-0.81049 -0.17194,-1.58299 1.35173,-2.45008 1.11514,-0.63461 2.43773,-0.77014 3.92906,-0.40264 1.26645,0.31208 0.97708,0.67173 -0.44125,0.54843 -0.67654,-0.0589 -1.23006,-0.0432 -1.23006,0.0347 0,0.0779 0.75419,0.73418 1.67596,1.4585 2.15112,1.69031 4.03856,2.29911 10.16329,3.27824 4.6107,0.73706 7.25093,0.90515 9.46971,0.60283 l 1.16687,-0.15898 -0.7056,-0.37078 c -0.90838,-0.47734 -0.53472,-0.71605 0.74773,-0.47766 1.75487,0.3262 1.41615,1.34384 -0.52588,1.57999 -0.97152,0.11812 -1.01484,0.1637 -1.14847,1.20816 -0.0764,0.59697 -0.30829,1.19438 -0.51533,1.32754 -0.48383,0.31119 -4.41356,0.24081 -7.06593,-0.12655 l -1.95953,-0.2714 0.18867,1.01765 c 0.10378,0.55969 0.18986,1.21944 0.19133,1.46609 0.003,0.59097 0.6767,0.58067 3.26116,-0.0498 2.37559,-0.57956 3.11535,-0.61388 4.05341,-0.18801 0.97182,0.4412 0.8898,1.28083 -0.19069,1.95177 -1.41733,0.88012 -5.53951,1.73808 -5.20251,1.08281 z m -6.22388,-3.1158 c 0,-0.55483 -0.84547,-1.62599 -1.79198,-2.27038 -1.0628,-0.72353 -3.34441,-1.46641 -4.04137,-1.31582 -0.51642,0.11157 1.10149,1.40919 3.31597,2.65952 1.86252,1.0516 2.51738,1.29267 2.51738,0.92668 z m 12.30053,-3.0902 v -0.86801 l -2.07572,-0.11312 c -2.60689,-0.14207 -10.28722,-1.38583 -12.5334,-2.02969 -2.3377,-0.67008 -4.47591,-2.14378 -5.88743,-4.05772 -0.13419,-0.18194 -1.33688,0.50269 -1.33688,0.76102 0,0.54545 2.5192,2.81561 3.81035,3.43368 0.695,0.33268 2.95166,1.13799 5.01483,1.78956 4.06803,1.28477 7.6629,1.91327 11.08628,1.93825 l 1.92197,0.014 z M 78.858777,280.8142 c 1.860454,-0.20761 4.212926,-0.43434 5.227713,-0.50385 3.155774,-0.2162 3.159679,-0.22113 1.01245,-1.27487 -3.82701,-1.87811 -7.064991,-4.52351 -9.195844,-7.51291 -2.339954,-3.28274 -4.270875,-8.62762 -4.270875,-11.8219 0,-0.84782 -0.07299,-1.58878 -0.16218,-1.64661 -0.08914,-0.0577 -0.746506,-0.0354 -1.460687,0.0499 -0.714182,0.0852 -1.87167,0.0863 -2.572196,0.002 l -1.27369,-0.15306 0.928188,1.41527 c 0.510496,0.77839 1.256639,1.89732 1.658082,2.48647 0.897422,1.31707 0.942959,2.12953 0.135077,2.40977 -0.949026,0.32921 -2.863758,0.23987 -4.179743,-0.19498 -1.129513,-0.37324 -1.295912,-0.38016 -2.379459,-0.0991 -1.053245,0.27315 -1.274865,0.27077 -2.310095,-0.0249 -0.629801,-0.17987 -1.69861,-0.34102 -2.375135,-0.35813 -0.676536,-0.017 -1.482408,-0.10655 -1.790835,-0.19868 -0.579872,-0.17331 3.302056,5.09477 5.570728,7.55989 2.397474,2.60509 5.659756,4.5407 9.233896,5.47872 2.058899,0.54035 2.942641,1.1983 1.609513,1.1983 -0.944598,0 -4.128314,-0.88073 -5.328435,-1.47402 -0.963949,-0.47654 -1.341251,-0.52224 -5.167379,-0.62595 l -4.127488,-0.11187 1.230048,0.42961 c 2.566477,0.8964 4.397875,1.72069 7.226556,3.2526 1.606758,0.87018 3.474895,1.74978 4.151419,1.95467 1.417043,0.42916 3.04729,0.38443 8.610371,-0.23635 z m 44.546963,-1.77992 c 1.32972,-0.2043 2.61993,-0.50252 2.86711,-0.66275 0.51843,-0.33602 1.00123,-1.53749 1.01187,-2.51807 l 0.007,-0.67583 -1.30618,0.96177 c -0.7184,0.52899 -2.31885,1.48337 -3.55655,2.12087 -1.2377,0.63749 -2.06832,1.156 -1.84582,1.15225 0.22249,-0.003 1.49249,-0.17394 2.82222,-0.37824 z M 68.271341,263.02213 c -0.146444,-0.24465 -0.972342,-1.52093 -1.835338,-2.83618 -0.862985,-1.31526 -1.569066,-2.56032 -1.569066,-2.76681 0,-0.33371 0.145305,-0.35782 1.306919,-0.21686 2.454238,0.29779 4.305244,0.19085 6.144894,-0.35503 2.008956,-0.59613 2.427914,-1.12998 1.650959,-2.1038 -0.376326,-0.47169 -0.898573,-0.69209 -2.414862,-1.01914 -2.165546,-0.46709 -4.95478,-1.59965 -5.466846,-2.21981 -0.284194,-0.34418 -0.585288,-0.39841 -1.932038,-0.34789 l -1.595379,0.0598 -0.224478,1.31721 c -0.123465,0.72448 -0.350012,1.5317 -0.503453,1.79384 -0.266853,0.45589 -0.28739,0.44627 -0.472526,-0.22101 -0.106462,-0.38367 -0.0046,-1.20485 0.225698,-1.82484 l 0.41926,-1.12724 -0.913868,-0.11846 c -1.649367,-0.21382 -1.672413,-0.19718 -1.953481,1.4106 -0.159473,0.91223 -0.422375,1.56221 -0.6517,1.61113 -0.454348,0.097 -0.491924,-0.79627 -0.09019,-2.14362 0.147084,-0.49332 0.24484,-0.91096 0.217237,-0.92811 -0.02766,-0.0171 -0.686845,-0.0925 -1.464975,-0.16765 l -1.414788,-0.13648 -0.276534,1.44789 c -0.152093,0.79633 -0.432464,1.481 -0.623038,1.52145 -0.57699,0.1225 -0.656825,-0.38001 -0.26017,-1.63745 0.39806,-1.26189 0.267678,-1.48553 -0.869703,-1.49181 -0.349711,-0.002 -0.735301,0.27243 -1.046156,0.74438 -0.664043,1.00814 -0.922668,5.576 -0.41188,7.27466 0.640518,2.1301 2.559295,3.94239 4.509998,4.25973 1.24103,0.20188 1.202571,-0.0633 -0.146816,-1.01204 -1.290474,-0.90742 -1.627086,-1.50339 -0.849108,-1.50339 0.234241,0 0.636752,0.20857 0.894471,0.46351 0.900478,0.89075 4.04577,2.72549 4.667086,2.72247 1.327899,-0.006 1.531677,-0.30333 0.701445,-1.02175 -1.083187,-0.93731 -1.827657,-1.94115 -1.609362,-2.17009 0.344388,-0.36116 0.753687,-0.1954 1.190462,0.48213 0.492714,0.76432 2.42431,2.22209 3.390131,2.5585 1.898879,0.66145 3.750639,0.49315 3.277172,-0.29785 z m 67.754179,-0.22436 c 1.29042,-0.34946 2.49784,-1.3642 3.18711,-2.67851 0.29354,-0.55973 0.67209,-1.01631 0.84122,-1.01464 0.53781,0.005 0.23969,1.17063 -0.57115,2.23257 -0.43103,0.56451 -0.75227,1.04673 -0.71386,1.07163 0.0384,0.0249 0.62,-0.11496 1.29245,-0.31076 1.99238,-0.58018 3.26281,-1.41825 4.2165,-2.78149 0.64723,-0.9252 0.98527,-1.2159 1.22966,-1.05748 0.2444,0.1584 0.19719,0.44924 -0.17174,1.05798 -0.57858,0.95469 -0.51717,1.08943 0.35823,0.78578 0.79283,-0.27501 1.88332,-2.1404 2.22375,-3.80394 0.33853,-1.65425 0.36061,-4.18558 0.0365,-4.18558 -0.76122,0 -1.24716,0.62137 -1.54391,1.9743 -0.29001,1.32209 -0.98094,2.27386 -1.43638,1.97865 -0.0927,-0.0602 0.0423,-0.63418 0.30017,-1.27573 0.25783,-0.64154 0.46876,-1.36641 0.46876,-1.61077 0,-0.43507 -0.0272,-0.43832 -1.30692,-0.15609 l -1.30693,0.28822 0.10598,1.21744 c 0.0829,0.95212 0.0158,1.19816 -0.3075,1.12902 -0.25779,-0.055 -0.4485,-0.47652 -0.50645,-1.11912 -0.0898,-0.99469 -0.12464,-1.03072 -0.9994,-1.03072 -0.88792,0 -0.90658,0.0214 -0.9112,1.0464 -0.002,0.57551 -0.12549,1.16999 -0.27312,1.32108 -0.52239,0.53454 -0.83245,0.0335 -0.64872,-1.0482 l 0.1861,-1.09597 -1.85922,-0.1703 c -1.57764,-0.14452 -1.97034,-0.11614 -2.59263,0.18731 -0.52644,0.2567 -1.28568,0.35761 -2.69073,0.35761 -2.41758,0 -3.18743,0.38414 -3.18743,1.59046 0,0.73151 0.10168,0.82733 1.30693,1.23181 0.96101,0.32251 1.85634,0.43995 3.38265,0.44371 1.88429,0.004 2.07536,0.0428 2.072,0.41254 -0.002,0.22408 -0.36381,0.81104 -0.80392,1.30433 -0.95914,1.07504 -1.95998,2.87207 -1.95998,3.51921 0,0.55782 0.96199,0.6283 2.5832,0.18925 z m -63.077874,-11.1329 c 0.286658,-0.79477 1.027328,-2.07286 1.645949,-2.84023 2.55526,-3.16965 7.984346,-7.78535 10.451275,-8.88546 0.765158,-0.3412 1.340415,-0.65329 1.278351,-0.69351 -0.626756,-0.40624 -9.684165,2.56868 -11.697734,3.84214 -3.810241,2.40973 -7.294095,5.55467 -7.303162,6.5927 -0.0023,0.29663 -0.128161,0.66573 -0.279057,0.82022 -0.417074,0.42703 -0.08066,0.77082 1.400935,1.43151 1.11538,0.4974 3.102893,1.10348 3.815773,1.16361 0.09158,0.007 0.401024,-0.63621 0.68767,-1.43098 z m 71.164864,0.75055 c 2.98115,-0.61526 4.39794,-1.16203 4.39794,-1.69722 0,-0.38428 -0.0919,-0.37439 -1.84295,0.19854 -2.5642,0.83896 -4.9277,1.19659 -7.90831,1.19659 -1.91937,0 -2.54925,0.0657 -2.54925,0.26574 0,0.46718 0.35791,0.53151 2.95675,0.53151 1.86339,0 3.19045,-0.13286 4.94582,-0.49516 z m -2.88034,-1.1048 c 1.17427,-0.11009 3.10407,-0.49727 4.37536,-0.87799 l 2.27449,-0.68113 -0.75023,-1.0995 c -1.52684,-2.23771 -3.95323,-5.22263 -5.91686,-7.27888 -2.35637,-2.46751 -4.69545,-5.49562 -4.70219,-6.08737 -0.01,-0.89849 -0.4379,-0.88683 -2.09845,0.0571 -1.48945,0.84667 -1.72202,1.09671 -2.53237,2.72248 -0.49075,0.9846 -0.89397,2.03405 -0.896,2.33213 -0.002,0.31618 0.62965,1.1708 1.51668,2.05148 2.01448,2.00012 2.62018,3.11939 3.43957,6.35597 l 0.6862,2.71048 1.25147,-0.003 c 0.68831,-0.002 2.19686,-0.0925 3.35233,-0.20083 z m -75.127572,-1.30306 c 0.164947,-0.2812 0.299896,-0.53043 0.299896,-0.55383 0,-0.0235 -1.833548,-0.009 -4.074547,0.0306 -3.702138,0.0665 -4.298398,0.0267 -6.523742,-0.43516 -1.849703,-0.38397 -2.507156,-0.4493 -2.686026,-0.26686 -0.404546,0.41259 -0.270433,0.89008 0.2919,1.03931 0.712717,0.18911 7.675011,0.6441 10.309294,0.67369 1.968079,0.0221 2.099914,-0.005 2.383225,-0.48786 z m -0.400815,-1.40103 c 0.688554,-0.0893 1.068738,-0.32517 1.542404,-0.95705 0.72291,-0.96444 4.850736,-4.20483 6.940851,-5.44865 0.779768,-0.46404 2.772603,-1.28156 4.428524,-1.81672 1.655921,-0.53515 3.425905,-1.11473 3.933311,-1.28791 0.507393,-0.17321 2.118334,-0.48733 3.579868,-0.69808 2.984528,-0.43033 3.207425,-0.51167 5.80863,-2.11982 l 1.863232,-1.15191 -1.808037,-1.32274 c -2.447183,-1.79036 -4.393539,-3.4834 -5.586476,-4.85944 l -0.992565,-1.1449 -0.979164,0.59861 c -1.405804,0.85944 -10.747847,4.95006 -15.262309,6.68295 -2.114151,0.81153 -4.639449,1.8827 -5.611767,2.38039 -2.050657,1.04963 -4.967205,3.35344 -6.503867,5.13746 -1.201608,1.39502 -3.074672,4.83516 -2.844394,5.22411 0.381788,0.64487 8.363635,1.1892 11.491759,0.7837 z m 42.005207,-36.87726 c 3.93132,-0.36807 4.81536,-0.56812 3.47441,-0.78627 -1.09306,-0.17781 -5.88843,0.0477 -6.65287,0.31285 -0.50737,0.17601 -0.5868,0.0855 -0.7727,-0.87873 -0.26417,-1.37039 0.003,-2.14558 0.93789,-2.71442 1.00097,-0.6095 3.36911,-0.76174 4.73383,-0.30433 1.11311,0.37309 1.98759,1.47152 1.82039,2.28656 -0.0673,0.3279 0.13114,0.66296 0.55022,0.92925 0.63631,0.40429 0.68563,0.40633 1.69169,0.069 0.72973,-0.24458 1.19767,-0.29136 1.58182,-0.1581 0.84021,0.29146 1.16732,0.0209 0.9652,-0.79833 -0.28678,-1.16245 0.51227,-2.17928 2.01274,-2.56131 1.46939,-0.37411 1.36027,-0.58042 -0.46453,-0.87824 -1.49197,-0.2435 -1.73424,-0.46517 -0.69994,-0.64049 0.53996,-0.0915 0.5961,-0.16708 0.29742,-0.40032 -0.5453,-0.42589 -1.50961,-0.53438 -1.71195,-0.19262 -0.0955,0.16129 -0.17362,0.53502 -0.17362,0.83053 0,0.63167 -0.82967,1.48397 -1.27204,1.30677 -0.16911,-0.0678 -0.20912,-0.27104 -0.0889,-0.4518 0.12019,-0.18075 0.31119,-0.74861 0.42445,-1.26193 0.17874,-0.81006 0.12941,-0.94625 -0.37359,-1.03152 -0.50433,-0.0854 -0.55317,-0.22296 -0.37644,-1.05984 l 0.20307,-0.96163 -0.74664,0.58168 c -0.95469,0.74373 -1.7601,0.59657 -1.78561,-0.32627 -0.0162,-0.58715 -0.0555,-0.61522 -0.38439,-0.27447 -0.78706,0.81552 -2.181,1.73896 -3.48808,2.31072 -1.56375,0.68402 -2.13742,0.76502 -1.76797,0.2496 0.13751,-0.19184 0.21544,-0.87247 0.17318,-1.51255 -0.0446,-0.67586 0.17884,-1.80387 0.53307,-2.69072 0.33546,-0.83986 0.75601,-2.6033 0.93457,-3.91877 0.17856,-1.31547 0.46289,-2.92992 0.63183,-3.58765 0.39498,-1.53772 0.39381,-4.09159 -0.003,-7.47429 -0.7921,-6.74483 -1.24773,-8.28779 -3.01933,-10.22463 l -0.87493,-0.95649 -1.27248,2.07062 c -2.54612,4.14322 -3.591402,8.11688 -4.091971,15.55587 -0.362488,5.38694 -0.149222,8.52692 0.814413,11.99119 0.510738,1.8361 0.581058,3.21491 0.172318,3.37863 -0.155834,0.0625 -0.65986,0.84631 -1.120055,1.74196 l -0.836726,1.62845 0.875964,0.45271 c 1.395986,0.72146 4.079757,0.82389 9.149787,0.34921 z m -3.17295,-5.05618 c 0,-0.41436 3.02898,-1.19924 4.62811,-1.19924 2.06137,0 1.91752,0.45393 -0.19351,0.61055 -0.83227,0.0617 -2.04905,0.26357 -2.70395,0.44847 -1.36744,0.38607 -1.73065,0.4155 -1.73065,0.14022 z m -2.22551,-3.34186 c -0.29995,-0.41054 0.41613,-12.01795 0.83728,-13.57196 0.25717,-0.94897 0.68575,-3.83314 0.95239,-6.40928 0.26665,-2.57613 0.60287,-4.76305 0.74717,-4.85983 0.56863,-0.38135 1.15058,0.0916 1.48266,1.20483 0.69903,2.34348 0.74286,3.5062 0.25608,6.79352 -0.27194,1.83655 -0.63316,5.49177 -0.8027,8.12271 -0.3232,5.01597 -0.59101,6.0481 -2.05563,7.92274 -0.69182,0.88553 -1.16024,1.14903 -1.41725,0.79727 z m 1.86817,-3.65051 c 0.17351,-0.61009 0.46868,-3.34567 0.65593,-6.07908 0.18726,-2.7334 0.55274,-6.25342 0.81218,-7.82224 0.44779,-2.70771 0.3539,-5.53662 -0.17669,-5.32409 -0.12382,0.0496 -0.32187,1.50599 -0.44011,3.23643 -0.11824,1.73044 -0.47918,4.40192 -0.80212,5.93665 -0.58236,2.7676 -1.05077,11.96042 -0.5816,11.41417 0.11931,-0.13892 0.3589,-0.75175 0.53241,-1.36184 z m 19.43562,11.46626 c 0.82111,-0.48163 0.75641,-0.86155 -0.18625,-1.09385 -1.07349,-0.26452 -1.12623,-0.2526 -0.90251,0.20426 0.18346,0.37468 0.0508,0.39947 -2.20876,0.41263 -1.32216,0.007 -2.6785,0.0836 -3.01407,0.16845 -0.53231,0.13476 -0.47348,0.1824 0.46127,0.37352 2.52711,0.5167 4.90362,0.49028 5.85032,-0.0651 z m -18.02889,-0.61151 c 0.26654,-0.0662 0.40434,-0.20475 0.30618,-0.3077 -0.26763,-0.28067 0.47968,-0.76765 1.17804,-0.76765 0.49199,0 0.58349,0.10084 0.46285,0.50985 -0.11425,0.38741 -0.0429,0.48315 0.29682,0.39864 0.24594,-0.0611 0.78479,-0.11122 1.19741,-0.11122 0.83815,0 1.68203,-0.86243 1.16914,-1.19486 -0.16642,-0.10788 -1.42949,-0.13532 -2.97454,-0.0648 l -2.68529,0.12282 v 0.76764 c 0,0.7721 0.15718,0.86903 1.04939,0.64712 z m 12.17367,-0.75504 c 0,-0.5283 0.66956,-0.80317 1.16855,-0.47975 0.17653,0.11442 0.24778,0.33163 0.15833,0.48271 -0.1215,0.20522 0.14915,0.27468 1.07025,0.27468 1.09336,0 1.26924,-0.0677 1.55446,-0.59795 0.17688,-0.32885 0.225,-0.60475 0.10698,-0.61305 -1.08518,-0.0765 -4.57842,0.079 -4.78944,0.21315 -0.33515,0.21306 0.0177,1.19717 0.42924,1.19717 0.1659,0 0.30166,-0.21464 0.30166,-0.47696 z m -8.63184,-1.63261 c -0.62811,-0.49054 -3.97428,-0.26091 -3.97688,0.27292 -3.1e-4,0.0784 0.97556,0.11251 2.16877,0.0758 1.82966,-0.0563 2.11287,-0.11079 1.80811,-0.34879 z m 11.6837,-0.20072 c -0.42148,-0.32917 -1.91438,-0.36938 -2.76456,-0.0745 -1.04188,0.3614 -0.64832,0.49319 1.26409,0.42327 1.55848,-0.057 1.80172,-0.11352 1.50047,-0.34881 z m 3.74549,-7.03573 c 4.34606,-6.60407 4.6305,-7.49976 4.69067,-14.77098 0.0377,-4.55449 -0.0353,-5.48767 -0.53067,-6.77667 -0.31589,-0.82219 -0.75369,-1.6817 -0.97287,-1.91005 -0.21917,-0.22837 -0.49535,-0.83378 -0.61371,-1.34537 -0.11837,-0.5116 -0.33509,-0.93019 -0.48159,-0.93019 -0.57157,0 -2.16164,2.20531 -3.51521,4.87535 -0.78021,1.53904 -1.77764,3.42153 -2.21651,4.18334 l -0.79796,1.38508 -0.0423,7.08576 c -0.0392,6.56857 -0.0905,7.20386 -0.70416,8.70388 -0.36405,0.88998 -0.89727,1.938 -1.18491,2.32895 l -0.52298,0.71084 0.90203,0.49195 c 0.49611,0.27057 1.09559,0.72637 1.33217,1.01289 l 0.43015,0.52095 1.17011,-1.34871 c 0.64356,-0.74179 2.01951,-2.63945 3.0577,-4.21702 z m -4.31953,2.1778 c -0.35458,-0.14203 -0.20742,-0.65321 0.84338,-2.92979 0.70009,-1.51677 1.41137,-3.2959 1.58063,-3.95365 0.38838,-1.50926 1.08095,-6.18262 1.69842,-11.46053 0.72616,-6.20713 0.79317,-6.57767 1.18893,-6.57432 0.7763,0.006 1.11596,0.3615 1.71807,1.79523 1.29302,3.0789 1.67389,8.88699 0.78251,11.93263 -0.64143,2.19162 -2.60442,5.83726 -4.57284,8.4926 -1.72191,2.32284 -2.51865,2.98643 -3.2391,2.69783 z m 5.06387,-7.42544 c 1.60335,-2.98252 1.99271,-4.69262 1.98049,-8.69828 -0.01,-3.48053 -0.52714,-6.43557 -1.20123,-6.87249 -0.22914,-0.1485 -0.32575,-0.0663 -0.3261,0.27729 -9.1e-4,0.89632 -1.53665,13.42148 -1.8377,14.98739 -0.16321,0.84903 -0.51559,2.10471 -0.78304,2.7904 -0.26747,0.6857 -0.548,1.4261 -0.62341,1.64536 -0.2715,0.78938 1.77231,-2.23475 2.79099,-4.12967 z"
         style="fill:#000000;stroke-width:0.24757147" />
    </g>
    <g
       id="g339"
       transform="translate(1.6036172,70.559155)">
      <path
         inkscape:connector-curvature="0"
         d="M 8.5059535,-50.293342 H 24.619135 v 3.1 h 15.828182 v -3.1 h 16.208182 v 3.1 h 15.828182 v -6.399823 h 16.20818 v 6.399823 h 15.828189 v -6.399823 h 16.20818 v 6.399823 h 15.82818 v -3.1 h 16.20818 v 3.1 h 15.82818 v -3.1 h 16.11319"
         style="fill:none;stroke:#000000;stroke-width:1"
         inkscape:label="part"
         id="path214"
         sodipodi:nodetypes="cccccccccccccccccccccc" />
      <path
         inkscape:connector-curvature="0"
         d="m 184.70596,-50.293342 v 18.123572 h -3.1 v 17.838571 h 3.1 V 3.8873725 h -3.1 V 21.725944 h 3.1 v 18.21857 h -3.1 v 17.838571 h 3.1 V 75.90665"
         style="fill:none;stroke:#000000;stroke-width:1"
         inkscape:label="part"
         id="path216" />
      <path
         inkscape:connector-curvature="0"
         d="m 184.70596,75.90665 h -16.11319 v -3.1 h -15.82818 v 3.1 h -16.20818 v -3.1 h -15.82818 v 3.1 h -16.20818 v -3.1 H 88.691861 v 3.1 h -16.20818 v -3.1 H 56.655499 v 3.1 H 40.447317 v -3.1 H 24.619135 v 3.1 H 8.5059535"
         style="fill:none;stroke:#000000;stroke-width:1"
         inkscape:label="part"
         id="path218" />
      <path
         inkscape:connector-curvature="0"
         d="M 8.5059535,75.90665 V 57.783085 H 11.605953 V 39.944514 H 8.5059535 V 21.725944 H 11.605953 V 3.8873725 H 8.5059535 V -14.331199 H 11.605953 V -32.16977 H 8.5059535 v -18.123572"
         style="fill:none;stroke:#000000;stroke-width:1"
         inkscape:label="part"
         id="path220" />
      <g
         id="text304"
         style="font-style:normal;font-variant:normal;font-weight:normal;font-stretch:normal;font-size:36.1027832px;line-height:1.25;font-family:sans-serif;-inkscape-font-specification:'sans-serif, Normal';font-variant-ligatures:normal;font-variant-caps:normal;font-variant-numeric:normal;font-feature-settings:normal;text-align:start;letter-spacing:0px;word-spacing:0px;writing-mode:lr-tb;text-anchor:start;fill:#000000;fill-opacity:1;stroke:none;stroke-width:0.37607065"
         transform="scale(0.76802941,1.3020335)"
         aria-label="Ágúst Jens">
        <path
           id="path306"
           style="font-style:normal;font-variant:normal;font-weight:normal;font-stretch:normal;font-size:36.1027832px;font-family:sans-serif;-inkscape-font-specification:'sans-serif, Normal';font-variant-ligatures:normal;font-variant-caps:normal;font-variant-numeric:normal;font-feature-settings:normal;text-align:start;writing-mode:lr-tb;text-anchor:start;stroke-width:0.37607065"
           d="M 53.218947,23.791779 H 49.499373 L 46.92564,16.476029 H 35.573007 l -2.573734,7.31575 h -3.543291 l 9.554546,-26.2485572 h 4.653874 z M 45.850313,13.479216 41.249323,0.59291983 36.630705,13.479216 Z m -0.01763,-25.807849 -4.812529,6.5929888 h -2.626618 l 3.155468,-6.5929888 z"
           inkscape:connector-curvature="0" />
        <path
           id="path308"
           style="font-style:normal;font-variant:normal;font-weight:normal;font-stretch:normal;font-size:36.1027832px;font-family:sans-serif;-inkscape-font-specification:'sans-serif, Normal';font-variant-ligatures:normal;font-variant-caps:normal;font-variant-numeric:normal;font-feature-settings:normal;text-align:start;writing-mode:lr-tb;text-anchor:start;stroke-width:0.37607065"
           d="m 72.909773,21.552983 q 0,5.006441 -2.274053,7.351006 -2.274052,2.344566 -6.998439,2.344566 -1.56892,0 -3.067327,-0.229168 -1.480778,-0.21154 -2.9263,-0.616991 V 27.01776 h 0.176284 q 0.810902,0.317309 2.573733,0.775645 1.762831,0.475965 3.525663,0.475965 1.692318,0 2.802901,-0.405451 1.110584,-0.405452 1.727575,-1.128212 0.616991,-0.687504 0.881415,-1.657062 0.264425,-0.969557 0.264425,-2.168282 v -1.798088 q -1.498406,1.198725 -2.873415,1.798088 -1.35738,0.581734 -3.472777,0.581734 -3.525663,0 -5.605804,-2.538477 -2.062512,-2.556105 -2.062512,-7.192351 0,-2.538477 0.705132,-4.3718214 0.722761,-1.8509728 1.956743,-3.1907245 1.14584,-1.2516102 2.785273,-1.9391144 1.639433,-0.7051324 3.261238,-0.7051324 1.709946,0 2.855787,0.3525662 1.163468,0.3349379 2.450335,1.0400704 l 0.21154,-0.846159 h 3.102583 z M 69.59565,18.379887 V 7.6442447 Q 68.273527,7.0448821 67.127686,6.7980857 65.999474,6.533661 64.871262,6.533661 q -2.732388,0 -4.301308,1.8333445 -1.56892,1.8333445 -1.56892,5.3237505 0,3.314122 1.163469,5.024069 1.163469,1.709946 3.8606,1.709946 1.445522,0 2.891044,-0.546478 1.46315,-0.564106 2.679503,-1.498406 z"
           inkscape:connector-curvature="0" />
        <path
           id="path310"
           style="font-style:normal;font-variant:normal;font-weight:normal;font-stretch:normal;font-size:36.1027832px;font-family:sans-serif;-inkscape-font-specification:'sans-serif, Normal';font-variant-ligatures:normal;font-variant-caps:normal;font-variant-numeric:normal;font-feature-settings:normal;text-align:start;writing-mode:lr-tb;text-anchor:start;stroke-width:0.37607065"
           d="m 95.756064,23.791779 h -3.314123 v -2.185911 q -1.67469,1.322123 -3.208353,2.027256 -1.533663,0.705132 -3.384636,0.705132 -3.102583,0 -4.830157,-1.886229 Q 79.29122,20.548169 79.29122,16.88148 V 4.1009539 h 3.314123 V 15.31256 q 0,1.498407 0.141026,2.573734 0.141027,1.057699 0.599363,1.815716 0.475965,0.775646 1.233982,1.128212 0.758017,0.352566 2.203539,0.352566 1.286867,0 2.802902,-0.669875 1.533663,-0.669876 2.855786,-1.709947 V 4.1009539 h 3.314123 z m -2.9263,-29.5450515 -4.812529,6.5929887 h -2.626619 l 3.155468,-6.5929887 z"
           inkscape:connector-curvature="0" />
        <path
           id="path312"
           style="font-style:normal;font-variant:normal;font-weight:normal;font-stretch:normal;font-size:36.1027832px;font-family:sans-serif;-inkscape-font-specification:'sans-serif, Normal';font-variant-ligatures:normal;font-variant-caps:normal;font-variant-numeric:normal;font-feature-settings:normal;text-align:start;writing-mode:lr-tb;text-anchor:start;stroke-width:0.37607065"
           d="m 116.34593,18.115462 q 0,2.697132 -2.2388,4.424706 -2.22116,1.727575 -6.08176,1.727575 -2.18591,0 -4.01926,-0.511221 -1.81571,-0.528849 -3.0497,-1.14584 v -3.719574 h 0.17629 q 1.56892,1.181097 3.4904,1.886229 1.92149,0.687504 3.68432,0.687504 2.18591,0 3.41989,-0.705132 1.23398,-0.705133 1.23398,-2.221167 0,-1.163469 -0.66987,-1.762832 -0.66988,-0.599362 -2.57373,-1.022442 -0.70514,-0.158655 -1.85098,-0.370194 -1.12821,-0.21154 -2.06251,-0.458336 -2.59136,-0.687505 -3.68432,-2.009628 -1.07532,-1.339752 -1.07532,-3.2788661 0,-1.2163535 0.49359,-2.2916805 0.51122,-1.0753271 1.53366,-1.9214861 0.98719,-0.8285306 2.50322,-1.3044951 1.53366,-0.4935927 3.41989,-0.4935927 1.76284,0 3.56092,0.4407078 1.81572,0.4230795 3.01444,1.0400704 V 8.6490585 H 115.394 q -1.26924,-0.9343006 -3.08495,-1.5689198 -1.81572,-0.6522476 -3.56092,-0.6522476 -1.81572,0 -3.06733,0.7051325 -1.25161,0.6875042 -1.25161,2.0625125 0,1.2163539 0.75802,1.8333449 0.74039,0.616991 2.39745,1.004813 0.91667,0.21154 2.04488,0.42308 1.14584,0.21154 1.90386,0.387823 2.30931,0.528849 3.56092,1.815716 1.25161,1.304495 1.25161,3.455149 z"
           inkscape:connector-curvature="0" />
        <path
           id="path314"
           style="font-style:normal;font-variant:normal;font-weight:normal;font-stretch:normal;font-size:36.1027832px;font-family:sans-serif;-inkscape-font-specification:'sans-serif, Normal';font-variant-ligatures:normal;font-variant-caps:normal;font-variant-numeric:normal;font-feature-settings:normal;text-align:start;writing-mode:lr-tb;text-anchor:start;stroke-width:0.37607065"
           d="m 131.33,23.615495 q -0.9343,0.246797 -2.04488,0.405452 -1.09296,0.158654 -1.95675,0.158654 -3.01444,0 -4.58336,-1.621804 -1.56892,-1.621805 -1.56892,-5.200352 V 6.8862273 H 118.9373 V 4.1009539 h 2.23879 v -5.6586882 h 3.31412 V 4.1009539 H 131.33 v 2.7852734 h -6.83979 v 8.9728107 q 0,1.551292 0.0705,2.432707 0.0705,0.863787 0.49359,1.621805 0.38782,0.705132 1.0577,1.04007 0.6875,0.31731 2.08014,0.31731 0.8109,0 1.69232,-0.229168 0.88141,-0.246796 1.26924,-0.405451 h 0.1763 z"
           inkscape:connector-curvature="0" />
        <path
           id="path316"
           style="font-style:normal;font-variant:normal;font-weight:normal;font-stretch:normal;font-size:36.1027832px;font-family:sans-serif;-inkscape-font-specification:'sans-serif, Normal';font-variant-ligatures:normal;font-variant-caps:normal;font-variant-numeric:normal;font-feature-settings:normal;text-align:start;writing-mode:lr-tb;text-anchor:start;stroke-width:0.37607065"
           d="m 157.93112,16.969622 q 0,3.455149 -2.1154,5.32375 -2.09777,1.868601 -5.64106,1.868601 -0.84616,0 -2.25642,-0.158655 -1.41027,-0.141026 -2.36219,-0.352566 v -3.261238 h 0.19391 q 0.72276,0.246797 1.78046,0.511221 1.05769,0.264425 2.16828,0.264425 1.6218,0 2.57373,-0.370194 0.96956,-0.370195 1.4279,-1.057699 0.47596,-0.705133 0.59936,-1.727575 0.14102,-1.022442 0.14102,-2.362194 V 0.32849514 H 148.8878 V -2.4567782 h 9.04332 z"
           inkscape:connector-curvature="0" />
        <path
           id="path318"
           style="font-style:normal;font-variant:normal;font-weight:normal;font-stretch:normal;font-size:36.1027832px;font-family:sans-serif;-inkscape-font-specification:'sans-serif, Normal';font-variant-ligatures:normal;font-variant-caps:normal;font-variant-numeric:normal;font-feature-settings:normal;text-align:start;writing-mode:lr-tb;text-anchor:start;stroke-width:0.37607065"
           d="m 180.9537,14.290118 h -14.5081 q 0,1.815716 0.54647,3.173097 0.54648,1.339751 1.49841,2.203539 0.91667,0.846159 2.16828,1.269238 1.26924,0.423079 2.78528,0.423079 2.00962,0 4.03688,-0.793274 2.04488,-0.810902 2.90867,-1.586548 h 0.17628 v 3.613804 q -1.67469,0.705133 -3.41989,1.181097 -1.7452,0.475965 -3.66669,0.475965 -4.90067,0 -7.65068,-2.644247 -2.75002,-2.661875 -2.75002,-7.544918 0,-4.8301572 2.62662,-7.6683155 2.64424,-2.8381582 6.94555,-2.8381582 3.984,0 6.13465,2.3269372 2.16829,2.3269372 2.16829,6.6106175 z m -3.22598,-2.538477 q -0.0176,-2.6089898 -1.32213,-4.0368831 -1.28686,-1.4278933 -3.93111,-1.4278933 -2.66188,0 -4.24842,1.5689198 -1.56892,1.5689198 -1.78046,3.8958566 z"
           inkscape:connector-curvature="0" />
        <path
           id="path320"
           style="font-style:normal;font-variant:normal;font-weight:normal;font-stretch:normal;font-size:36.1027832px;font-family:sans-serif;-inkscape-font-specification:'sans-serif, Normal';font-variant-ligatures:normal;font-variant-caps:normal;font-variant-numeric:normal;font-feature-settings:normal;text-align:start;writing-mode:lr-tb;text-anchor:start;stroke-width:0.37607065"
           d="m 202.44261,23.791779 h -3.31412 V 12.580172 q 0,-1.35738 -0.15865,-2.538477 -0.15866,-1.1987251 -0.58174,-1.868601 -0.4407,-0.7403891 -1.26924,-1.0929553 -0.82853,-0.3701946 -2.15065,-0.3701946 -1.35738,0 -2.83816,0.6698759 -1.48078,0.6698758 -2.83816,1.7099463 V 23.791779 h -3.31412 V 4.1009539 h 3.31412 v 2.1859107 q 1.5513,-1.2868667 3.20836,-2.0096275 1.65706,-0.7227608 3.40226,-0.7227608 3.19073,0 4.86542,1.921486 1.67468,1.921486 1.67468,5.5352897 z"
           inkscape:connector-curvature="0" />
        <path
           id="path322"
           style="font-style:normal;font-variant:normal;font-weight:normal;font-stretch:normal;font-size:36.1027832px;font-family:sans-serif;-inkscape-font-specification:'sans-serif, Normal';font-variant-ligatures:normal;font-variant-caps:normal;font-variant-numeric:normal;font-feature-settings:normal;text-align:start;writing-mode:lr-tb;text-anchor:start;stroke-width:0.37607065"
           d="m 222.89145,18.115462 q 0,2.697132 -2.2388,4.424706 -2.22117,1.727575 -6.08177,1.727575 -2.18591,0 -4.01925,-0.511221 -1.81572,-0.528849 -3.0497,-1.14584 v -3.719574 h 0.17628 q 1.56892,1.181097 3.49041,1.886229 1.92149,0.687504 3.68432,0.687504 2.18591,0 3.41989,-0.705132 1.23398,-0.705133 1.23398,-2.221167 0,-1.163469 -0.66987,-1.762832 -0.66988,-0.599362 -2.57374,-1.022442 -0.70513,-0.158655 -1.85097,-0.370194 -1.12821,-0.21154 -2.06251,-0.458336 -2.59137,-0.687505 -3.68432,-2.009628 -1.07533,-1.339752 -1.07533,-3.2788661 0,-1.2163535 0.4936,-2.2916805 0.51122,-1.0753271 1.53366,-1.9214861 0.98718,-0.8285306 2.50322,-1.3044951 1.53366,-0.4935927 3.41989,-0.4935927 1.76283,0 3.56092,0.4407078 1.81572,0.4230795 3.01444,1.0400704 v 3.5432908 h -0.17628 q -1.26924,-0.9343006 -3.08496,-1.5689198 -1.81571,-0.6522476 -3.56092,-0.6522476 -1.81571,0 -3.06732,0.7051325 -1.25161,0.6875042 -1.25161,2.0625125 0,1.2163539 0.75802,1.8333449 0.74038,0.616991 2.39745,1.004813 0.91667,0.21154 2.04488,0.42308 1.14584,0.21154 1.90386,0.387823 2.30931,0.528849 3.56092,1.815716 1.25161,1.304495 1.25161,3.455149 z"
           inkscape:connector-curvature="0" />
      </g>
    </g>
  </g>
  <g
     id="g247"
     inkscape:groupmode="layer"
     inkscape:label="newlayer"
     transform="translate(0,-8)" />
</svg>
