<?xml version="1.0" standalone="no"?>
<!DOCTYPE svg PUBLIC "-//W3C//DTD SVG 1.1//EN"
  "http://www.w3.org/Graphics/SVG/1.1/DTD/svg11.dtd">
<svg width="143.4000015258789mm" height="124.20000076293945mm" viewBox="-82.4000015258789 -37.20000076293945 143.4000015258789 124.20000076293945" xmlns="http://www.w3.org/2000/svg" version="1.1">
	<title>svgOutput</title>
	<desc>made with tinkercad</desc>
<path d="M -44.20078659057617 12.0647554397583 L -44.304840087890625 12.288000106811523 L -44.557918548583984 12.830979347229004 L -44.73099899291992 13.476176261901855 L -44.949764251708984 14.292169570922852 L -45.00821304321289 14.957755088806152 L -45.08199691772461 15.799421310424805 L -45.08204650878906 15.800000190734863 L -45.03076171875 16.384000778198242 L -45.023597717285156 16.465585708618164 L -44.94981384277344 17.3072509765625 L -44.949764251708984 17.307830810546875 L -44.77668380737305 17.953027725219727 L -44.557918548583984 18.769020080566406 L -44.2756462097168 19.374799728393555 L -43.91904830932617 20.139877319335938 L -43.918514251708984 20.141023635864258 L -43.68111801147461 20.479999542236328 L -43.53520202636719 20.688352584838867 L -43.050636291503906 21.38074493408203 L -41.980743408203125 22.45063591003418 L -41.433414459228516 22.833948135375977 L -40.959999084472656 23.165264129638672 L -40.74135208129883 23.318283081054688 L -40.741024017333984 23.318513870239258 L -40.13524627685547 23.600786209106445 L -39.369022369384766 23.95792007446289 L -38.72382354736328 24.131000518798828 L -37.90782928466797 24.34976577758789 L -37.242244720458984 24.408212661743164 L -36.86399841308594 24.44137191772461 L -36.400577545166016 24.48199462890625 L -36.400001525878906 24.482046127319336 L -35.734413146972656 24.42359733581543 L -34.89274978637695 24.349815368652344 L -34.89216995239258 24.34976577758789 L -34.246971130371094 24.176685333251953 L -33.43098068237305 23.95792007446289 L -32.825199127197266 23.67564582824707 L -32.768001556396484 23.648984909057617 L -32.060123443603516 23.319046020507812 L -32.05897521972656 23.318513870239258 L -31.511646270751953 22.93520164489746 L -30.819255828857422 22.45063591003418 L -29.74936294555664 21.38074493408203 L -29.366050720214844 20.83341407775879 L -29.118717193603516 20.479999542236328 L -28.881717681884766 20.1413516998291 L -28.881486892700195 20.141023635864258 L -28.599212646484375 19.53524398803711 L -28.24207878112793 18.769020080566406 L -28.069000244140625 18.123823165893555 L -27.850234985351562 17.307830810546875 L -27.791786193847656 16.642244338989258 L -27.769147872924805 16.384000778198242 L -27.71800422668457 15.800579071044922 L -27.717952728271484 15.800000190734863 L -27.77640151977539 15.134413719177246 L -27.850183486938477 14.29274845123291 L -27.850234985351562 14.292169570922852 L -28.0233154296875 13.646971702575684 L -28.24207878112793 12.830979347229004 L -28.49509048461914 12.288000106811523 L -28.52435302734375 12.225200653076172 L -28.880952835083008 11.460122108459473 L -28.881486892700195 11.458976745605469 L -29.264799118041992 10.911646842956543 L -29.74936294555664 10.219256401062012 L -30.819255828857422 9.14936351776123 L -31.366586685180664 8.766051292419434 L -32.05897521972656 8.281486511230469 L -32.25102233886719 8.192000389099121 L -32.664756774902344 7.999213218688965 L -32.768001556396484 7.951091289520264 L -33.43098068237305 7.6420793533325195 L -34.076175689697266 7.468999862670898 L -34.89216995239258 7.250235080718994 L -35.55775451660156 7.191786766052246 L -36.39942169189453 7.118004322052002 L -36.400001525878906 7.117953777313232 L -36.86399841308594 7.158699989318848 L -37.06558609008789 7.1764020919799805 L -37.90725326538086 7.250184535980225 L -37.90782928466797 7.250235080718994 L -38.55302810668945 7.423314571380615 L -39.369022369384766 7.6420793533325195 L -39.97480010986328 7.924353122711182 L -40.54903030395508 8.192000389099121 L -40.7398796081543 8.280953407287598 L -40.741024017333984 8.281486511230469 L -40.959999084472656 8.434843063354492 L -41.288352966308594 8.664799690246582 L -41.980743408203125 9.14936351776123 L -43.050636291503906 10.219256401062012 L -43.4339485168457 10.766586303710938 L -43.91828155517578 11.458647727966309 L -43.918514251708984 11.458976745605469 L -44.20078659057617 12.0647554397583 M -32.664756774902344 -14.000786781311035 L -32.768001556396484 -14.048908233642578 L -33.43098068237305 -14.35792064666748 L -34.076175689697266 -14.531000137329102 L -34.89216995239258 -14.749764442443848 L -35.55775451660156 -14.808213233947754 L -36.39942169189453 -14.88199520111084 L -36.400001525878906 -14.882046699523926 L -36.86399841308594 -14.841300010681152 L -37.06558609008789 -14.82359790802002 L -37.90725326538086 -14.749815940856934 L -37.90782928466797 -14.749764442443848 L -38.55302810668945 -14.576684951782227 L -39.369022369384766 -14.35792064666748 L -39.97480010986328 -14.07564640045166 L -40.7398796081543 -13.719046592712402 L -40.741024017333984 -13.718513488769531 L -40.959999084472656 -13.565156936645508 L -41.288352966308594 -13.335200309753418 L -41.980743408203125 -12.85063648223877 L -43.050636291503906 -11.780743598937988 L -43.4339485168457 -11.233413696289062 L -43.91828155517578 -10.541352272033691 L -43.918514251708984 -10.541023254394531 L -44.20078659057617 -9.9352445602417 L -44.557918548583984 -9.169020652770996 L -44.73099899291992 -8.523823738098145 L -44.81996154785156 -8.192000389099121 L -44.949764251708984 -7.707830905914307 L -45.00821304321289 -7.0422444343566895 L -45.08199691772461 -6.2005791664123535 L -45.08204650878906 -6.199999809265137 L -45.023597717285156 -5.534413814544678 L -44.94981384277344 -4.692748069763184 L -44.949764251708984 -4.692169189453125 L -44.78983688354492 -4.0960001945495605 L -44.77668380737305 -4.046972274780273 L -44.557918548583984 -3.2309792041778564 L -44.2756462097168 -2.6252007484436035 L -43.91904830932617 -1.8601220846176147 L -43.918514251708984 -1.8589768409729004 L -43.53520202636719 -1.3116466999053955 L -43.050636291503906 -0.6192559599876403 L -42.43138122558594 1.1102230246251565e-16 L -41.980743408203125 0.45063656568527233 L -41.433414459228516 0.8339489102363588 L -40.959999084472656 1.1652638912200928 L -40.74135208129883 1.3182826042175293 L -40.741024017333984 1.318513035774231 L -40.13524627685547 1.600786805152893 L -39.369022369384766 1.9579204320907593 L -38.72382354736328 2.13100004196167 L -37.90782928466797 2.349764823913574 L -37.242244720458984 2.4082131385803223 L -36.86399841308594 2.441370964050293 L -36.400577545166016 2.4819955825805664 L -36.400001525878906 2.482046365737915 L -35.734413146972656 2.423598051071167 L -34.89274978637695 2.349815607070923 L -34.89216995239258 2.349764823913574 L -34.246971130371094 2.176685333251953 L -33.43098068237305 1.9579204320907593 L -32.825199127197266 1.6756466627120972 L -32.768001556396484 1.6489856243133545 L -32.060123443603516 1.3190468549728394 L -32.05897521972656 1.318513035774231 L -31.511646270751953 0.9352006912231446 L -30.819255828857422 0.45063656568527233 L -30.368619918823242 1.1102230246251565e-16 L -29.74936294555664 -0.6192559599876403 L -29.366050720214844 -1.16658616065979 L -28.881717681884766 -1.8586475849151611 L -28.881486892700195 -1.8589768409729004 L -28.599212646484375 -2.4647552967071533 L -28.24207878112793 -3.2309792041778564 L -28.069000244140625 -3.876176357269287 L -28.010066986083984 -4.0960001945495605 L -27.850234985351562 -4.692169189453125 L -27.791786193847656 -5.357755184173584 L -27.71800422668457 -6.199420928955078 L -27.717952728271484 -6.199999809265137 L -27.77640151977539 -6.865586280822754 L -27.850183486938477 -7.707252025604248 L -27.850234985351562 -7.707830905914307 L -27.980117797851562 -8.192000389099121 L -28.0233154296875 -8.353028297424316 L -28.24207878112793 -9.169020652770996 L -28.52435302734375 -9.774799346923828 L -28.880952835083008 -10.539877891540527 L -28.881486892700195 -10.541023254394531 L -29.264799118041992 -11.088353157043457 L -29.74936294555664 -11.780743598937988 L -30.25661849975586 -12.288000106811523 L -30.819255828857422 -12.85063648223877 L -31.366586685180664 -13.233948707580566 L -32.05864715576172 -13.718282699584961 L -32.05897521972656 -13.718513488769531 L -32.664756774902344 -14.000786781311035 M -32.47200012207031 73.09200286865234 L -30.99795913696289 71.7096176147461 L -30.702999114990234 71.43299865722656 L -29.792600631713867 70.99800109863281 L -28.472000122070312 70.36699676513672 L -26 70 L -24.576000213623047 70.21141052246094 L -23.527999877929688 70.36699676513672 L -22.207990646362305 70.99800109863281 L -21.29800033569336 71.43299865722656 L -20.899158477783203 71.80683135986328 L -19.99799919128418 72.65147399902344 L -19.527999877929688 73.09200286865234 L -19.18247413635254 73.72799682617188 L -18.392000198364258 75.18299865722656 L -18 77.5 L -18.392000198364258 79.81800079345703 L -19.527999877929688 81.90899658203125 L -19.539735794067383 81.91999816894531 L -19.99799919128418 82.34952545166016 L -20.799396514892578 83.10066223144531 L -21.29800033569336 83.56800079345703 L -22.208845138549805 84.00299835205078 L -23.527999877929688 84.63300323486328 L -24.576000213623047 84.78858947753906 L -26 85 L -28.472000122070312 84.63300323486328 L -29.791746139526367 84.00299835205078 L -30.702999114990234 83.56800079345703 L -32.460269927978516 81.91999816894531 L -32.47200012207031 81.90899658203125 L -32.768001556396484 81.36463928222656 L -33.00299835205078 80.93246459960938 L -33.60900115966797 79.81800079345703 L -34 77.5 L -33.60900115966797 75.18299865722656 L -33.00299835205078 74.06853485107422 L -32.81782913208008 73.72799682617188 L -32.768001556396484 73.63636016845703 L -32.65584945678711 73.43010711669922 L -32.47200012207031 73.09200286865234 M -56.664756774902344 -14.000786781311035 L -57.34400177001953 -14.31737995147705 L -57.43098068237305 -14.35792064666748 L -58.076175689697266 -14.531000137329102 L -58.89216995239258 -14.749764442443848 L -59.55775451660156 -14.808213233947754 L -60.39942169189453 -14.88199520111084 L -60.400001525878906 -14.882046699523926 L -61.06558609008789 -14.82359790802002 L -61.439998626708984 -14.790776252746582 L -61.90725326538086 -14.749815940856934 L -61.90782928466797 -14.749764442443848 L -62.55302810668945 -14.576684951782227 L -63.369022369384766 -14.35792064666748 L -63.97480010986328 -14.07564640045166 L -64.73987579345703 -13.719046592712402 L -64.74102020263672 -13.718513488769531 L -65.2883529663086 -13.335200309753418 L -65.53600311279297 -13.161887168884277 L -65.98074340820312 -12.85063648223877 L -67.0506362915039 -11.780743598937988 L -67.43395233154297 -11.233413696289062 L -67.91828155517578 -10.541352272033691 L -67.91851043701172 -10.541023254394531 L -68.20079040527344 -9.9352445602417 L -68.55792236328125 -9.169020652770996 L -68.73100280761719 -8.523823738098145 L -68.81996154785156 -8.192000389099121 L -68.94976806640625 -7.707830905914307 L -69.00821685791016 -7.0422444343566895 L -69.08199310302734 -6.2005791664123535 L -69.08204650878906 -6.199999809265137 L -69.02359771728516 -5.534413814544678 L -68.94981384277344 -4.692748069763184 L -68.94976806640625 -4.692169189453125 L -68.78984069824219 -4.0960001945495605 L -68.77668762207031 -4.046972274780273 L -68.55792236328125 -3.2309792041778564 L -68.27565002441406 -2.6252007484436035 L -67.9190444946289 -1.8601220846176147 L -67.91851043701172 -1.8589768409729004 L -67.53520202636719 -1.3116466999053955 L -67.0506362915039 -0.6192559599876403 L -66.43138122558594 1.1102230246251565e-16 L -65.98074340820312 0.45063656568527233 L -65.53600311279297 0.7621046900749208 L -65.43341064453125 0.8339489102363588 L -64.7413558959961 1.3182826042175293 L -64.74102020263672 1.318513035774231 L -64.13524627685547 1.600786805152893 L -63.369022369384766 1.9579204320907593 L -62.72382354736328 2.13100004196167 L -61.90782928466797 2.349764823913574 L -61.439998626708984 2.3908474445343018 L -61.242244720458984 2.4082131385803223 L -60.400577545166016 2.4819955825805664 L -60.400001525878906 2.482046365737915 L -59.734413146972656 2.423598051071167 L -58.89274978637695 2.349815607070923 L -58.89216995239258 2.349764823913574 L -58.246971130371094 2.176685333251953 L -57.43098068237305 1.9579204320907593 L -57.34400177001953 1.9173908233642578 L -56.825199127197266 1.6756466627120972 L -56.060123443603516 1.3190468549728394 L -56.05897521972656 1.318513035774231 L -55.51164627075195 0.9352006912231446 L -54.81925582885742 0.45063656568527233 L -54.36861801147461 1.1102230246251565e-16 L -53.74936294555664 -0.6192559599876403 L -53.366050720214844 -1.16658616065979 L -52.881717681884766 -1.8586475849151611 L -52.88148880004883 -1.8589768409729004 L -52.599212646484375 -2.4647552967071533 L -52.24208068847656 -3.2309792041778564 L -52.069000244140625 -3.876176357269287 L -52.010066986083984 -4.0960001945495605 L -51.85023498535156 -4.692169189453125 L -51.791786193847656 -5.357755184173584 L -51.7180061340332 -6.199420928955078 L -51.717952728271484 -6.199999809265137 L -51.77640151977539 -6.865586280822754 L -51.85018539428711 -7.707252025604248 L -51.85023498535156 -7.707830905914307 L -51.98011779785156 -8.192000389099121 L -52.0233154296875 -8.353028297424316 L -52.24208068847656 -9.169020652770996 L -52.52435302734375 -9.774799346923828 L -52.88095474243164 -10.539877891540527 L -52.88148880004883 -10.541023254394531 L -53.264801025390625 -11.088353157043457 L -53.74936294555664 -11.780743598937988 L -54.25661849975586 -12.288000106811523 L -54.81925582885742 -12.85063648223877 L -55.36658477783203 -13.233948707580566 L -56.05864715576172 -13.718282699584961 L -56.05897521972656 -13.718513488769531 L -56.664756774902344 -14.000786781311035 M -65.2883529663086 9.664799690246582 L -65.53600311279297 9.838112831115723 L -65.98074340820312 10.14936351776123 L -67.0506362915039 11.219256401062012 L -67.43395233154297 11.766586303710938 L -67.79885864257812 12.288000106811523 L -67.91828155517578 12.458647727966309 L -67.91851043701172 12.458976745605469 L -68.20079040527344 13.0647554397583 L -68.55792236328125 13.830979347229004 L -68.73100280761719 14.476176261901855 L -68.94976806640625 15.292169570922852 L -69.00821685791016 15.957755088806152 L -69.04557800292969 16.384000778198242 L -69.08199310302734 16.799421310424805 L -69.08204650878906 16.799999237060547 L -69.02359771728516 17.465585708618164 L -68.94981384277344 18.3072509765625 L -68.94976806640625 18.307830810546875 L -68.77668762207031 18.953027725219727 L -68.55792236328125 19.769020080566406 L -68.27565002441406 20.374799728393555 L -68.22661590576172 20.479999542236328 L -67.9190444946289 21.139877319335938 L -67.91851043701172 21.141023635864258 L -67.53520202636719 21.688352584838867 L -67.0506362915039 22.38074493408203 L -65.98074340820312 23.45063591003418 L -65.53600311279297 23.762104034423828 L -65.43341064453125 23.833948135375977 L -64.7413558959961 24.318283081054688 L -64.74102020263672 24.318513870239258 L -64.18843841552734 24.576000213623047 L -64.13524627685547 24.600786209106445 L -63.369022369384766 24.95792007446289 L -62.72382354736328 25.131000518798828 L -61.90782928466797 25.34976577758789 L -61.439998626708984 25.39084815979004 L -61.242244720458984 25.408212661743164 L -60.400577545166016 25.48199462890625 L -60.400001525878906 25.482046127319336 L -59.734413146972656 25.42359733581543 L -58.89274978637695 25.349815368652344 L -58.89216995239258 25.34976577758789 L -58.246971130371094 25.176685333251953 L -57.43098068237305 24.95792007446289 L -57.34400177001953 24.917390823364258 L -56.825199127197266 24.67564582824707 L -56.611412048339844 24.576000213623047 L -56.060123443603516 24.319046020507812 L -56.05897521972656 24.318513870239258 L -55.51164627075195 23.93520164489746 L -54.81925582885742 23.45063591003418 L -53.74936294555664 22.38074493408203 L -53.366050720214844 21.83341407775879 L -52.881717681884766 21.1413516998291 L -52.88148880004883 21.141023635864258 L -52.599212646484375 20.53524398803711 L -52.573463439941406 20.479999542236328 L -52.24208068847656 19.769020080566406 L -52.069000244140625 19.123823165893555 L -51.85023498535156 18.307830810546875 L -51.791786193847656 17.642244338989258 L -51.7180061340332 16.800579071044922 L -51.717952728271484 16.799999237060547 L -51.754486083984375 16.384000778198242 L -51.77640151977539 16.134414672851562 L -51.85018539428711 15.29274845123291 L -51.85023498535156 15.292169570922852 L -52.0233154296875 14.646971702575684 L -52.24208068847656 13.830979347229004 L -52.52435302734375 13.225200653076172 L -52.88095474243164 12.460122108459473 L -52.88148880004883 12.458976745605469 L -53.00122833251953 12.288000106811523 L -53.264801025390625 11.911646842956543 L -53.74936294555664 11.219256401062012 L -54.81925582885742 10.14936351776123 L -55.36658477783203 9.766051292419434 L -56.05864715576172 9.281717300415039 L -56.05897521972656 9.281486511230469 L -56.664756774902344 8.999213218688965 L -57.34400177001953 8.68262004852295 L -57.43098068237305 8.64207935333252 L -58.076175689697266 8.468999862670898 L -58.89216995239258 8.250235557556152 L -59.555328369140625 8.192000389099121 L -59.55775451660156 8.191786766052246 L -60.39942169189453 8.11800479888916 L -60.400001525878906 8.117953300476074 L -61.06558609008789 8.17640209197998 L -61.2435188293457 8.192000389099121 L -61.439998626708984 8.209223747253418 L -61.90725326538086 8.250184059143066 L -61.90782928466797 8.250235557556152 L -62.55302810668945 8.423315048217773 L -63.369022369384766 8.64207935333252 L -63.97480010986328 8.92435359954834 L -64.73987579345703 9.280953407287598 L -64.74102020263672 9.281486511230469 L -65.2883529663086 9.664799690246582 M -65 50.79999923706055 L -69.40299987792969 50.79999923706055 L -81.4000015258789 50.79999923706055 L -81.4000015258789 -36.20000076293945 L -69.40299987792969 -36.20000076293945 L -51.39799880981445 -36.20000076293945 L -45.40299987792969 -36.20000076293945 L -27.398000717163086 -36.20000076293945 L -14.399999618530273 -36.20000076293945 L -14.399999618530273 24.80299949645996 L -14.399999618530273 50.79999923706055 L -16 50.79999923706055 L -36.000999450683594 50.79999923706055 L -44.999000549316406 50.79999923706055 L -45.40299987792969 50.79999923706055 L -65 50.79999923706055 M -50.297000885009766 84.56800079345703 L -51.208251953125 85.00299835205078 L -52.52799987792969 85.63300323486328 L -55 86 L -57.34400177001953 85.6520004272461 L -57.47200012207031 85.63300323486328 L -58.79115676879883 85.00299835205078 L -59.586578369140625 84.62312316894531 L -59.70199966430664 84.56800079345703 L -61.47200012207031 82.90899658203125 L -62.00199890136719 81.9334487915039 L -62.00930404663086 81.91999816894531 L -62.608001708984375 80.81800079345703 L -63 78.5 L -62.608001708984375 76.18299865722656 L -62.00199890136719 75.06755828857422 L -61.65513229370117 74.42908477783203 L -61.47200012207031 74.09200286865234 L -61.08364486694336 73.72799682617188 L -59.99740982055664 72.70988464355469 L -59.70199966430664 72.43299865722656 L -58.79201126098633 71.99800109863281 L -57.47200012207031 71.36699676513672 L -57.34400177001953 71.3479995727539 L -55 71 L -52.52799987792969 71.36699676513672 L -51.2073974609375 71.99800109863281 L -50.297000885009766 72.43299865722656 L -49.89812088012695 72.80707550048828 L -49.152000427246094 73.50679779052734 L -48.916133880615234 73.72799682617188 L -48.52799987792969 74.09200286865234 L -47.39099884033203 76.18299865722656 L -47 78.5 L -47.39099884033203 80.81800079345703 L -47.9902229309082 81.91999816894531 L -48.52799987792969 82.90899658203125 L -49.152000427246094 83.49420166015625 L -49.79910659790039 84.10106658935547 L -50.297000885009766 84.56800079345703 M 20.527999877929688 72.09200286865234 L 22.00259017944336 70.70988464355469 L 22.29800033569336 70.43299865722656 L 23.207990646362305 69.99800109863281 L 24.527999877929688 69.36699676513672 L 24.576000213623047 69.35987091064453 L 27 69 L 29.472000122070312 69.36699676513672 L 30.792600631713867 69.99800109863281 L 31.702999114990234 70.43299865722656 L 32.10187911987305 70.80707550048828 L 32.768001556396484 71.43177795410156 L 33.47200012207031 72.09200286865234 L 34.36159133911133 73.72799682617188 L 34.60900115966797 74.18299865722656 L 35 76.5 L 34.60900115966797 78.81800079345703 L 33.47200012207031 80.90899658203125 L 33.00299835205078 81.34883880615234 L 32.768001556396484 81.56922149658203 L 32.39396667480469 81.91999816894531 L 32.20089340209961 82.10106658935547 L 31.702999114990234 82.56800079345703 L 30.791746139526367 83.00299835205078 L 29.472000122070312 83.63300323486328 L 27 84 L 24.576000213623047 83.64012908935547 L 24.527999877929688 83.63300323486328 L 23.208845138549805 83.00299835205078 L 22.29800033569336 82.56800079345703 L 21.606643676757812 81.91999816894531 L 20.724714279174805 81.09337615966797 L 20.527999877929688 80.90899658203125 L 19.99799919128418 79.9334487915039 L 19.392000198364258 78.81800079345703 L 19 76.5 L 19.392000198364258 74.18299865722656 L 19.639192581176758 73.72799682617188 L 19.99799919128418 73.06755828857422 L 20.344867706298828 72.42908477783203 L 20.527999877929688 72.09200286865234 M 60 52 L 51.00299835205078 52 L 38.99800109863281 52 L 37.000999450683594 52 L 22.003000259399414 52 L 22.00200080871582 52 L 17 52 L 12 52 L 6.998000144958496 52 L -7 52 L -7 44.38800048828125 L -7 -35 L 6.998000144958496 -35 L 12 -35 L 17 -35 L 22.003000259399414 -35 L 37.000999450683594 -35 L 38.99800109863281 -35 L 51.00299835205078 -35 L 60 -35 L 60 44.38800048828125 L 60 52 M -2.703000068664551 82.56800079345703 L -3.393965721130371 81.91999816894531 L -4.27644157409668 81.09239959716797 L -4.4720001220703125 80.90899658203125 L -5.002999782562256 79.93246459960938 L -5.609000205993652 78.81800079345703 L -6 76.5 L -5.609000205993652 74.18299865722656 L -5.361589431762695 73.72799682617188 L -5.002999782562256 73.06853485107422 L -4.655849456787109 72.43010711669922 L -4.4720001220703125 72.09200286865234 L -2.9979584217071533 70.7096176147461 L -2.703000068664551 70.43299865722656 L -1.7926013469696045 69.99800109863281 L -0.47200000286102295 69.36699676513672 L 0 69.29692840576172 L 2 69 L 4.4720001220703125 69.36699676513672 L 5.792009353637695 69.99800109863281 L 6.702000141143799 70.43299865722656 L 7.100841045379639 70.80683135986328 L 8.001999855041504 71.65147399902344 L 8.192000389099121 71.82955932617188 L 8.472000122070312 72.09200286865234 L 9.360807418823242 73.72799682617188 L 9.607999801635742 74.18299865722656 L 10 76.5 L 9.607999801635742 78.81800079345703 L 8.472000122070312 80.90899658203125 L 8.192000389099121 81.17144012451172 L 8.001999855041504 81.34952545166016 L 7.3933563232421875 81.91999816894531 L 7.20060396194458 82.10066223144531 L 6.702000141143799 82.56800079345703 L 5.791154861450195 83.00299835205078 L 4.4720001220703125 83.63300323486328 L 2 84 L 0 83.70307159423828 L -0.47200000286102295 83.63300323486328 L -1.7917464971542358 83.00299835205078 L -2.703000068664551 82.56800079345703 M -31.76099967956543 81.3219985961914 L -31.163000106811523 81.91999816894531 L -30.32200050354004 82.76100158691406 L -28.510000228881836 83.68499755859375 L -26.5 84.00299835205078 L -24.576000213623047 83.69845581054688 L -24.490999221801758 83.68499755859375 L -22.67799949645996 82.76100158691406 L -21.837583541870117 81.91999816894531 L -21.239999771118164 81.3219985961914 L -20.31599998474121 79.51000213623047 L -19.99799919128418 77.5 L -20.31599998474121 75.49099731445312 L -21.21451759338379 73.72799682617188 L -21.239999771118164 73.6780014038086 L -22.67799949645996 72.23999786376953 L -24.490999221801758 71.31600189208984 L -24.576000213623047 71.30254364013672 L -26.5 70.99800109863281 L -28.510000228881836 71.31600189208984 L -30.32200050354004 72.23999786376953 L -31.76099967956543 73.6780014038086 L -31.786481857299805 73.72799682617188 L -32.685001373291016 75.49099731445312 L -32.768001556396484 76.0153579711914 L -33.00299835205078 77.5 L -32.768001556396484 78.9853744506836 L -32.685001373291016 79.51000213623047 L -31.76099967956543 81.3219985961914 M -50.23899841308594 82.3219985961914 L -50.03400802612305 81.91999816894531 L -49.314998626708984 80.51000213623047 L -49.152000427246094 79.4797134399414 L -48.99700164794922 78.5 L -49.152000427246094 77.52076721191406 L -49.314998626708984 76.49099731445312 L -50.23899841308594 74.6780014038086 L -51.189659118652344 73.72799682617188 L -51.678001403808594 73.23999786376953 L -53.4900016784668 72.31600189208984 L -55.5 71.99800109863281 L -57.34400177001953 72.28987884521484 L -57.50899887084961 72.31600189208984 L -59.321998596191406 73.23999786376953 L -59.810001373291016 73.72799682617188 L -60.7599983215332 74.6780014038086 L -61.683998107910156 76.49099731445312 L -62.00199890136719 78.5 L -61.683998107910156 80.51000213623047 L -60.96499252319336 81.91999816894531 L -60.7599983215332 82.3219985961914 L -59.321998596191406 83.76100158691406 L -57.50899887084961 84.68499755859375 L -57.34400177001953 84.71112060546875 L -55.5 85.00299835205078 L -53.4900016784668 84.68499755859375 L -51.678001403808594 83.76100158691406 L -50.23899841308594 82.3219985961914 M 20.31599998474121 74.49099731445312 L 19.99799919128418 76.5 L 20.31599998474121 78.51000213623047 L 21.239999771118164 80.3219985961914 L 22.67799949645996 81.76100158691406 L 22.98997688293457 81.91999816894531 L 24.490999221801758 82.68499755859375 L 24.576000213623047 82.69845581054688 L 26.5 83.00299835205078 L 28.510000228881836 82.68499755859375 L 30.010194778442383 81.91999816894531 L 30.32200050354004 81.76100158691406 L 31.76099967956543 80.3219985961914 L 32.685001373291016 78.51000213623047 L 32.768001556396484 77.9853744506836 L 33.00299835205078 76.5 L 32.768001556396484 75.0153579711914 L 32.685001373291016 74.49099731445312 L 32.29613494873047 73.72799682617188 L 31.76099967956543 72.6780014038086 L 30.32200050354004 71.23999786376953 L 28.510000228881836 70.31600189208984 L 26.5 69.99800109863281 L 24.576000213623047 70.30254364013672 L 24.490999221801758 70.31600189208984 L 22.67799949645996 71.23999786376953 L 21.239999771118164 72.6780014038086 L 20.704864501953125 73.72799682617188 L 20.31599998474121 74.49099731445312 M -3.760999917984009 72.6780014038086 L -4.296134948730469 73.72799682617188 L -4.684999942779541 74.49099731445312 L -5.002999782562256 76.5 L -4.684999942779541 78.51000213623047 L -3.760999917984009 80.3219985961914 L -2.322000026702881 81.76100158691406 L -2.010194778442383 81.91999816894531 L -0.5099999904632568 82.68499755859375 L 0 82.76568603515625 L 1.5 83.00299835205078 L 3.509000062942505 82.68499755859375 L 5.0100226402282715 81.91999816894531 L 5.322000026702881 81.76100158691406 L 6.760000228881836 80.3219985961914 L 7.684000015258789 78.51000213623047 L 8.001999855041504 76.5 L 7.684000015258789 74.49099731445312 L 7.295135021209717 73.72799682617188 L 6.760000228881836 72.6780014038086 L 5.322000026702881 71.23999786376953 L 3.509000062942505 70.31600189208984 L 1.5 69.99800109863281 L 7.028849480531993e-14 70.23531341552734 L -0.5099999904632568 70.31600189208984 L -2.322000026702881 71.23999786376953 L -3.760999917984009 72.6780014038086 z" fill="none" stroke="rgb(255,0,0)" stroke-width="0.001mm" />
</svg>